<?xml version="1.0" standalone="yes"?>

<svg version="1.1" viewBox="0.0 0.0 960.0 720.0" fill="none" stroke="none" stroke-linecap="square" stroke-miterlimit="10" xmlns="http://www.w3.org/2000/svg" xmlns:xlink="http://www.w3.org/1999/xlink"><clipPath id="p.0"><path d="m0 0l960.0 0l0 720.0l-960.0 0l0 -720.0z" clip-rule="nonzero"></path></clipPath><g clip-path="url(#p.0)"><path fill="#000000" fill-opacity="0.0" d="m0 0l960.0 0l0 720.0l-960.0 0z" fill-rule="nonzero"></path><path fill="#d9ead3" d="m243.65092 614.96344l0 0c0 -5.876648 4.763962 -10.640625 10.640625 -10.640625l125.364395 0c2.8220825 0 5.5285645 1.1210938 7.5240784 3.1165771c1.9955139 1.9955444 3.1165771 4.7020264 3.1165771 7.524048l0 42.56128c0 5.876648 -4.763977 10.640625 -10.6406555 10.640625l-125.364395 0l0 0c-5.876663 0 -10.640625 -4.763977 -10.640625 -10.640625z" fill-rule="nonzero"></path><path fill="#000000" d="m276.0503 640.2735l1.515625 -7.140625l1.625 0l-2.46875 10.03125l-1.296875 0l-1.96875 -7.1875l-1.90625 7.1875l-1.3125 0l-2.4375 -10.03125l1.609375 0l1.5625 6.96875l1.859375 -6.96875l1.296875 0l1.921875 7.140625zm12.124756 0l1.515625 -7.140625l1.625 0l-2.46875 10.03125l-1.296875 0l-1.96875 -7.1875l-1.90625 7.1875l-1.3125 0l-2.4375 -10.03125l1.609375 0l1.5625 6.96875l1.859375 -6.96875l1.296875 0l1.921875 7.140625zm12.124725 0l1.515625 -7.140625l1.625 0l-2.46875 10.03125l-1.296875 0l-1.96875 -7.1875l-1.90625 7.1875l-1.3125 0l-2.4375 -10.03125l1.609375 0l1.5625 6.96875l1.859375 -6.96875l1.296875 0l1.921875 7.140625zm13.209595 -2.578125l-2.375 0l0 5.46875l-1.703125 0l0 -13.515625l3.78125 0q2.0 0 3.015625 1.046875q1.015625 1.03125 1.015625 3.03125q0 1.25 -0.546875 2.1875q-0.546875 0.921875 -1.5625 1.390625l2.609375 5.75l0 0.109375l-1.828125 0l-2.40625 -5.46875zm-2.375 -1.453125l2.0625 0q1.078125 0 1.703125 -0.6875q0.640625 -0.6875 0.640625 -1.828125q0 -2.609375 -2.359375 -2.609375l-2.046875 0l0 5.125zm12.277039 1.453125l-2.375 0l0 5.46875l-1.703125 0l0 -13.515625l3.78125 0q2.0 0 3.015625 1.046875q1.015625 1.03125 1.015625 3.03125q0 1.25 -0.546875 2.1875q-0.546875 0.921875 -1.5625 1.390625l2.609375 5.75l0 0.109375l-1.828125 0l-2.40625 -5.46875zm-2.375 -1.453125l2.0625 0q1.078125 0 1.703125 -0.6875q0.640625 -0.6875 0.640625 -1.828125q0 -2.609375 -2.359375 -2.609375l-2.046875 0l0 5.125zm14.105133 3.5q0 -1.0 -0.546875 -1.53125q-0.546875 -0.546875 -1.984375 -1.046875q-1.421875 -0.515625 -2.1875 -1.078125q-0.75 -0.5625 -1.125 -1.28125q-0.375 -0.71875 -0.375 -1.65625q0 -1.59375 1.0625 -2.625q1.078125 -1.046875 2.8125 -1.046875q1.1875 0 2.109375 0.53125q0.9375 0.53125 1.4375 1.484375q0.5 0.9375 0.5 2.0625l-1.703125 0q0 -1.25 -0.609375 -1.9375q-0.59375 -0.6875 -1.734375 -0.6875q-1.03125 0 -1.59375 0.578125q-0.5625 0.578125 -0.5625 1.625q0 0.84375 0.609375 1.421875q0.609375 0.578125 1.890625 1.03125q2.0 0.65625 2.859375 1.625q0.859375 0.96875 0.859375 2.515625q0 1.640625 -1.078125 2.640625q-1.0625 0.984375 -2.890625 0.984375q-1.1875 0 -2.1875 -0.515625q-0.984375 -0.515625 -1.5625 -1.4375q-0.578125 -0.9375 -0.578125 -2.15625l1.71875 0q0 1.265625 0.6875 1.96875q0.703125 0.6875 1.921875 0.6875q1.109375 0 1.671875 -0.578125q0.578125 -0.578125 0.578125 -1.578125zm5.5401917 3.421875l-1.703125 0l0 -13.515625l1.703125 0l0 13.515625zm11.3359375 -1.671875l-0.296875 0.359375q-1.28125 1.5 -3.75 1.5q-2.1875 0 -3.4375 -1.453125q-1.25 -1.453125 -1.265625 -4.109375l0 -2.65625q0 -2.828125 1.125 -4.234375q1.140625 -1.421875 3.40625 -1.421875q1.921875 0 3.015625 1.078125q1.09375 1.0625 1.203125 3.0625l-1.703125 0q-0.09375 -1.265625 -0.703125 -1.96875q-0.59375 -0.71875 -1.796875 -0.71875q-1.46875 0 -2.140625 0.953125q-0.671875 0.953125 -0.703125 3.046875l0 2.75q0 2.046875 0.78125 3.140625q0.78125 1.078125 2.234375 1.078125q1.375 0 2.078125 -0.671875l0.25 -0.21875l0 -3.125l-2.453125 0l0 -1.4375l4.15625 0l0 5.046875zm11.35733 1.671875l-1.640625 0l0 -11.4375l-2.84375 1.265625l0 -1.5625l4.234375 -1.84375l0.25 0l0 13.578125z" fill-rule="nonzero"></path><path fill="#cfe2f3" d="m412.75067 64.58552l0 0c0 -5.876663 4.7639465 -10.640636 10.640625 -10.640636l67.56912 0c2.8220825 0 5.5285645 1.1210632 7.524048 3.1165695c1.9955139 1.9955063 3.1165771 4.701992 3.1165771 7.524067l0 42.56125c0 5.876663 -4.763977 10.640633 -10.640625 10.640633l-67.56912 0c-5.8766785 0 -10.640625 -4.7639694 -10.640625 -10.640633z" fill-rule="nonzero"></path><path fill="#000000" d="m441.69604 76.31739l-2.375 0l0 5.46875l-1.703125 0l0 -13.515625l3.78125 0q2.0 0 3.015625 1.046875q1.015625 1.03125 1.015625 3.03125q0 1.25 -0.546875 2.1875q-0.546875 0.921875 -1.5625 1.390625l2.609375 5.75l0 0.109375l-1.828125 0l-2.40625 -5.46875zm-2.375 -1.453125l2.0625 0q1.078125 0 1.703125 -0.6875q0.640625 -0.6875 0.640625 -1.828125q0 -2.609375 -2.359375 -2.609375l-2.046875 0l0 5.125zm16.995789 1.359375q0 2.765625 -1.1875 4.265625q-1.171875 1.484375 -3.34375 1.484375q-2.09375 0 -3.3125 -1.453125q-1.203125 -1.453125 -1.25 -4.109375l0 -2.53125q0 -2.71875 1.1875 -4.25q1.203125 -1.53125 3.359375 -1.53125q2.125 0 3.3125 1.46875q1.203125 1.46875 1.234375 4.1875l0 2.46875zm-1.703125 -2.375q0 -2.140625 -0.703125 -3.171875q-0.703125 -1.046875 -2.140625 -1.046875q-1.40625 0 -2.125 1.0625q-0.71875 1.046875 -0.734375 3.109375l0 2.421875q0 2.0625 0.71875 3.15625q0.71875 1.078125 2.140625 1.078125q1.4375 0 2.125 -1.0q0.6875 -1.0 0.71875 -3.078125l0 -2.53125zm12.907806 2.375q0 2.765625 -1.1875 4.265625q-1.171875 1.484375 -3.34375 1.484375q-2.09375 0 -3.3125 -1.453125q-1.203125 -1.453125 -1.25 -4.109375l0 -2.53125q0 -2.71875 1.1875 -4.25q1.203125 -1.53125 3.359375 -1.53125q2.125 0 3.3125 1.46875q1.203125 1.46875 1.234375 4.1875l0 2.46875zm-1.703125 -2.375q0 -2.140625 -0.703125 -3.171875q-0.703125 -1.046875 -2.140625 -1.046875q-1.40625 0 -2.125 1.0625q-0.71875 1.046875 -0.734375 3.109375l0 2.421875q0 2.0625 0.71875 3.15625q0.71875 1.078125 2.140625 1.078125q1.4375 0 2.125 -1.0q0.6875 -1.0 0.71875 -3.078125l0 -2.53125zm12.017181 -4.109375l-3.5625 0l0 12.046875l-1.703125 0l0 -12.046875l-3.53125 0l0 -1.46875l8.796875 0l0 1.46875z" fill-rule="nonzero"></path><path fill="#000000" d="m447.37112 99.50489q-0.109375 2.171875 -1.21875 3.328125q-1.109375 1.140625 -3.125 1.140625q-2.03125 0 -3.234375 -1.546875q-1.1875 -1.546875 -1.1875 -4.1875l0 -2.453125q0 -2.625 1.21875 -4.15625q1.234375 -1.53125 3.359375 -1.53125q1.953125 0 3.015625 1.171875q1.078125 1.171875 1.171875 3.34375l-1.71875 0q-0.109375 -1.640625 -0.6875 -2.34375q-0.578125 -0.71875 -1.78125 -0.71875q-1.390625 0 -2.140625 1.09375q-0.734375 1.078125 -0.734375 3.15625l0 2.484375q0 2.046875 0.6875 3.140625q0.703125 1.09375 2.03125 1.09375q1.328125 0 1.90625 -0.65625q0.59375 -0.65625 0.71875 -2.359375l1.71875 0zm8.591736 -1.96875l-4.78125 0l0 4.796875l5.5625 0l0 1.453125l-7.265625 0l0 -13.515625l7.171875 0l0 1.46875l-5.46875 0l0 4.34375l4.78125 0l0 1.453125zm6.858124 0.78125l-2.375 0l0 5.46875l-1.703125 0l0 -13.515625l3.78125 0q2.0 0 3.015625 1.046875q1.015625 1.03125 1.015625 3.03125q0 1.25 -0.546875 2.1875q-0.546875 0.921875 -1.5625 1.390625l2.609375 5.75l0 0.109375l-1.828125 0l-2.40625 -5.46875zm-2.375 -1.453125l2.0625 0q1.078125 0 1.703125 -0.6875q0.640625 -0.6875 0.640625 -1.828125q0 -2.609375 -2.359375 -2.609375l-2.046875 0l0 5.125zm16.105133 -5.125l-3.5625 0l0 12.046875l-1.703125 0l0 -12.046875l-3.53125 0l0 -1.46875l8.796875 0l0 1.46875z" fill-rule="nonzero"></path><path fill="#cfe2f3" d="m262.2021 176.56189l0 0c0 -5.876663 4.763977 -10.640625 10.6406555 -10.640625l106.8132 0c2.8220825 0 5.5285645 1.1210632 7.5240784 3.116562c1.9955139 1.9955139 3.1165771 4.701996 3.1165771 7.524063l0 42.561264c0 5.876648 -4.763977 10.640625 -10.6406555 10.640625l-106.8132 0c-5.8766785 0 -10.6406555 -4.763977 -10.6406555 -10.640625z" fill-rule="nonzero"></path><path fill="#000000" d="m293.46884 203.54376q0.8125 0 1.296875 -0.5q0.5 -0.515625 0.546875 -1.4375l1.546875 0q-0.0625 1.4375 -1.03125 2.390625q-0.96875 0.953125 -2.359375 0.953125q-1.875 0 -2.859375 -1.171875q-0.96875 -1.171875 -0.96875 -3.5l0 -1.09375q0 -2.28125 0.96875 -3.453125q0.984375 -1.1875 2.84375 -1.1875q1.546875 0 2.4375 0.96875q0.90625 0.96875 0.96875 2.65625l-1.546875 0q-0.0625 -1.109375 -0.546875 -1.65625q-0.46875 -0.5625 -1.3125 -0.5625q-1.09375 0 -1.625 0.71875q-0.53125 0.71875 -0.546875 2.359375l0 1.28125q0 1.765625 0.515625 2.5q0.53125 0.734375 1.671875 0.734375zm4.773834 -4.265625q0 -2.1875 1.0625 -3.453125q1.0625 -1.28125 2.8125 -1.28125q1.75 0 2.8125 1.25q1.0625 1.234375 1.078125 3.375l0 1.0625q0 2.171875 -1.0625 3.453125q-1.046875 1.265625 -2.8125 1.265625q-1.734375 0 -2.796875 -1.234375q-1.046875 -1.234375 -1.09375 -3.34375l0 -1.09375zm1.65625 0.953125q0 1.546875 0.59375 2.4375q0.609375 0.875 1.640625 0.875q2.171875 0 2.234375 -3.125l0 -1.140625q0 -1.53125 -0.609375 -2.421875q-0.609375 -0.90625 -1.640625 -0.90625q-1.015625 0 -1.625 0.90625q-0.59375 0.890625 -0.59375 2.40625l0 0.96875zm9.614563 -5.5l0.03125 0.921875q0.921875 -1.109375 2.421875 -1.109375q1.671875 0 2.34375 1.453125q0.953125 -1.453125 2.640625 -1.453125q2.765625 0 2.828125 3.453125l0 6.765625l-1.625 0l0 -6.609375q0 -1.09375 -0.390625 -1.625q-0.390625 -0.53125 -1.3125 -0.53125q-0.75 0 -1.21875 0.578125q-0.453125 0.578125 -0.53125 1.46875l0 6.71875l-1.65625 0l0 -6.6875q-0.015625 -2.078125 -1.6875 -2.078125q-1.25 0 -1.765625 1.234375l0 7.53125l-1.625 0l0 -10.03125l1.546875 0zm12.60025 9.125q0 -0.4375 0.25 -0.734375q0.265625 -0.296875 0.796875 -0.296875q0.53125 0 0.796875 0.296875q0.28125 0.296875 0.28125 0.734375q0 0.4375 -0.28125 0.734375q-0.265625 0.28125 -0.796875 0.28125q-0.53125 0 -0.796875 -0.28125q-0.25 -0.296875 -0.25 -0.734375zm9.291748 0.90625l0 -13.515625l3.21875 0q2.375 0 3.671875 1.484375q1.3125 1.484375 1.3125 4.15625l0 2.265625q0 2.6875 -1.328125 4.15625q-1.328125 1.453125 -3.84375 1.453125l-3.03125 0zm1.703125 -12.046875l0 10.59375l1.359375 0q1.796875 0 2.609375 -1.015625q0.828125 -1.03125 0.859375 -3.046875l0 -2.390625q0 -2.140625 -0.828125 -3.140625q-0.8125 -1.0 -2.484375 -1.0l-1.515625 0zm14.852112 8.625q0 -1.0 -0.546875 -1.53125q-0.546875 -0.546875 -1.984375 -1.046875q-1.421875 -0.515625 -2.1875 -1.078125q-0.75 -0.5625 -1.125 -1.28125q-0.375 -0.71875 -0.375 -1.65625q0 -1.59375 1.0625 -2.625q1.078125 -1.046875 2.8125 -1.046875q1.1875 0 2.109375 0.53125q0.9375 0.53125 1.4375 1.484375q0.5 0.9375 0.5 2.0625l-1.703125 0q0 -1.25 -0.609375 -1.9375q-0.59375 -0.6875 -1.734375 -0.6875q-1.03125 0 -1.59375 0.578125q-0.5625 0.578125 -0.5625 1.625q0 0.84375 0.609375 1.421875q0.609375 0.578125 1.890625 1.03125q2.0 0.65625 2.859375 1.625q0.859375 0.96875 0.859375 2.515625q0 1.640625 -1.078125 2.640625q-1.0625 0.984375 -2.890625 0.984375q-1.1875 0 -2.1875 -0.515625q-0.984375 -0.515625 -1.5625 -1.4375q-0.578125 -0.9375 -0.578125 -2.15625l1.71875 0q0 1.265625 0.6875 1.96875q0.703125 0.6875 1.921875 0.6875q1.109375 0 1.671875 -0.578125q0.578125 -0.578125 0.578125 -1.578125zm12.5469055 3.421875l-1.640625 0l0 -11.4375l-2.84375 1.265625l0 -1.5625l4.234375 -1.84375l0.25 0l0 13.578125z" fill-rule="nonzero"></path><path fill="#cfe2f3" d="m520.4068 179.47003l0 0c0 -5.876663 4.763977 -10.64064 10.640686 -10.64064l106.81317 0c2.8220825 0 5.5285645 1.1210632 7.524109 3.1165771c1.9954834 1.9954987 3.1165771 4.701996 3.1165771 7.524063l0 42.56125c0 5.876663 -4.763977 10.64064 -10.640686 10.64064l-106.81317 0c-5.876709 0 -10.640686 -4.763977 -10.640686 -10.64064z" fill-rule="nonzero"></path><path fill="#000000" d="m551.6736 206.4519q0.8125 0 1.296875 -0.5q0.5 -0.515625 0.546875 -1.4375l1.546875 0q-0.0625 1.4375 -1.03125 2.390625q-0.96875 0.953125 -2.359375 0.953125q-1.875 0 -2.859375 -1.171875q-0.96875 -1.171875 -0.96875 -3.5l0 -1.09375q0 -2.28125 0.96875 -3.453125q0.984375 -1.1875 2.84375 -1.1875q1.546875 0 2.4375 0.96875q0.90625 0.96875 0.96875 2.65625l-1.546875 0q-0.0625 -1.109375 -0.546875 -1.65625q-0.46875 -0.5625 -1.3125 -0.5625q-1.09375 0 -1.625 0.71875q-0.53125 0.71875 -0.546875 2.359375l0 1.28125q0 1.765625 0.515625 2.5q0.53125 0.734375 1.671875 0.734375zm4.7738037 -4.265625q0 -2.1875 1.0625 -3.453125q1.0625 -1.28125 2.8125 -1.28125q1.75 0 2.8125 1.25q1.0625 1.234375 1.078125 3.375l0 1.0625q0 2.171875 -1.0625 3.453125q-1.046875 1.265625 -2.8125 1.265625q-1.734375 0 -2.796875 -1.234375q-1.046875 -1.234375 -1.09375 -3.34375l0 -1.09375zm1.65625 0.953125q0 1.546875 0.59375 2.4375q0.609375 0.875 1.640625 0.875q2.171875 0 2.234375 -3.125l0 -1.140625q0 -1.53125 -0.609375 -2.421875q-0.609375 -0.90625 -1.640625 -0.90625q-1.015625 0 -1.625 0.90625q-0.59375 0.890625 -0.59375 2.40625l0 0.96875zm9.614563 -5.5l0.03125 0.921875q0.921875 -1.109375 2.421875 -1.109375q1.671875 0 2.34375 1.453125q0.953125 -1.453125 2.640625 -1.453125q2.765625 0 2.828125 3.453125l0 6.765625l-1.625 0l0 -6.609375q0 -1.09375 -0.390625 -1.625q-0.390625 -0.53125 -1.3125 -0.53125q-0.75 0 -1.21875 0.578125q-0.453125 0.578125 -0.53125 1.46875l0 6.71875l-1.65625 0l0 -6.6875q-0.015625 -2.078125 -1.6875 -2.078125q-1.25 0 -1.765625 1.234375l0 7.53125l-1.625 0l0 -10.03125l1.546875 0zm12.600281 9.125q0 -0.4375 0.25 -0.734375q0.265625 -0.296875 0.796875 -0.296875q0.53125 0 0.796875 0.296875q0.28125 0.296875 0.28125 0.734375q0 0.4375 -0.28125 0.734375q-0.265625 0.28125 -0.796875 0.28125q-0.53125 0 -0.796875 -0.28125q-0.25 -0.296875 -0.25 -0.734375zm9.291748 0.90625l0 -13.515625l3.21875 0q2.375 0 3.671875 1.484375q1.3125 1.484375 1.3125 4.15625l0 2.265625q0 2.6875 -1.328125 4.15625q-1.328125 1.453125 -3.84375 1.453125l-3.03125 0zm1.703125 -12.046875l0 10.59375l1.359375 0q1.796875 0 2.609375 -1.015625q0.828125 -1.03125 0.859375 -3.046875l0 -2.390625q0 -2.140625 -0.828125 -3.140625q-0.8125 -1.0 -2.484375 -1.0l-1.515625 0zm14.852112 8.625q0 -1.0 -0.546875 -1.53125q-0.546875 -0.546875 -1.984375 -1.046875q-1.421875 -0.515625 -2.1875 -1.078125q-0.75 -0.5625 -1.125 -1.28125q-0.375 -0.71875 -0.375 -1.65625q0 -1.59375 1.0625 -2.625q1.078125 -1.046875 2.8125 -1.046875q1.1875 0 2.109375 0.53125q0.9375 0.53125 1.4375 1.484375q0.5 0.9375 0.5 2.0625l-1.703125 0q0 -1.25 -0.609375 -1.9375q-0.59375 -0.6875 -1.734375 -0.6875q-1.03125 0 -1.59375 0.578125q-0.5625 0.578125 -0.5625 1.625q0 0.84375 0.609375 1.421875q0.609375 0.578125 1.890625 1.03125q2.0 0.65625 2.859375 1.625q0.859375 0.96875 0.859375 2.515625q0 1.640625 -1.078125 2.640625q-1.0625 0.984375 -2.890625 0.984375q-1.1875 0 -2.1875 -0.515625q-0.984375 -0.515625 -1.5625 -1.4375q-0.578125 -0.9375 -0.578125 -2.15625l1.71875 0q0 1.265625 0.6875 1.96875q0.703125 0.6875 1.921875 0.6875q1.109375 0 1.671875 -0.578125q0.578125 -0.578125 0.578125 -1.578125zm15.21875 3.421875l-7.5625 0l0 -1.234375l3.859375 -5.109375q0.875 -1.171875 1.203125 -1.921875q0.34375 -0.765625 0.34375 -1.609375q0 -1.078125 -0.5 -1.734375q-0.5 -0.671875 -1.3125 -0.671875q-1.03125 0 -1.59375 0.71875q-0.5625 0.703125 -0.5625 2.03125l-1.640625 0q0 -1.859375 1.015625 -3.0q1.015625 -1.15625 2.78125 -1.15625q1.609375 0 2.53125 0.984375q0.9375 0.984375 0.9375 2.625q0 2.0 -2.09375 4.75l-3.0 3.921875l5.59375 0l0 1.40625z" fill-rule="nonzero"></path><path fill="#cfe2f3" d="m211.30446 285.0724l0 0c0 -5.876648 4.763977 -10.640625 10.64064 -10.640625l157.71085 0c2.8220825 0 5.5285645 1.1210632 7.5240784 3.1165771c1.9955139 1.9954834 3.1165771 4.7019653 3.1165771 7.524048l0 42.56125c0 5.8766785 -4.763977 10.6406555 -10.6406555 10.6406555l-157.71085 0c-5.876663 0 -10.64064 -4.763977 -10.64064 -10.6406555z" fill-rule="nonzero"></path><path fill="#000000" d="m247.63753 312.05426q0.8125 0 1.296875 -0.5q0.5 -0.515625 0.546875 -1.4375l1.546875 0q-0.0625 1.4375 -1.03125 2.390625q-0.96875 0.953125 -2.359375 0.953125q-1.875 0 -2.859375 -1.171875q-0.96875 -1.171875 -0.96875 -3.5l0 -1.09375q0 -2.28125 0.96875 -3.453125q0.984375 -1.1875 2.84375 -1.1875q1.546875 0 2.4375 0.96875q0.90625 0.96875 0.96875 2.65625l-1.546875 0q-0.0625 -1.109375 -0.546875 -1.65625q-0.46875 -0.5625 -1.3125 -0.5625q-1.09375 0 -1.625 0.71875q-0.53125 0.71875 -0.546875 2.359375l0 1.28125q0 1.765625 0.515625 2.5q0.53125 0.734375 1.671875 0.734375zm4.773834 -4.265625q0 -2.1875 1.0625 -3.453125q1.0625 -1.28125 2.8125153 -1.28125q1.75 0 2.8125 1.25q1.0625 1.234375 1.078125 3.375l0 1.0625q0 2.171875 -1.0625 3.453125q-1.046875 1.265625 -2.8125 1.265625q-1.7343903 0 -2.7968903 -1.234375q-1.046875 -1.234375 -1.09375 -3.34375l0 -1.09375zm1.65625 0.953125q0 1.546875 0.59375 2.4375q0.609375 0.875 1.6406403 0.875q2.171875 0 2.234375 -3.125l0 -1.140625q0 -1.53125 -0.609375 -2.421875q-0.609375 -0.90625 -1.640625 -0.90625q-1.0156403 0 -1.6250153 0.90625q-0.59375 0.890625 -0.59375 2.40625l0 0.96875zm9.614578 -5.5l0.03125 0.921875q0.921875 -1.109375 2.421875 -1.109375q1.671875 0 2.34375 1.453125q0.953125 -1.453125 2.640625 -1.453125q2.765625 0 2.828125 3.453125l0 6.765625l-1.625 0l0 -6.609375q0 -1.09375 -0.390625 -1.625q-0.390625 -0.53125 -1.3125 -0.53125q-0.75 0 -1.21875 0.578125q-0.453125 0.578125 -0.53125 1.46875l0 6.71875l-1.65625 0l0 -6.6875q-0.015625 -2.078125 -1.6875 -2.078125q-1.25 0 -1.765625 1.234375l0 7.53125l-1.625 0l0 -10.03125l1.546875 0zm12.60022 9.125q0 -0.4375 0.25 -0.734375q0.265625 -0.296875 0.796875 -0.296875q0.53125 0 0.796875 0.296875q0.28125 0.296875 0.28125 0.734375q0 0.4375 -0.28125 0.734375q-0.265625 0.28125 -0.796875 0.28125q-0.53125 0 -0.796875 -0.28125q-0.25 -0.296875 -0.25 -0.734375zm9.291748 0.90625l0 -13.515625l3.21875 0q2.375 0 3.671875 1.484375q1.3125 1.484375 1.3125 4.15625l0 2.265625q0 2.6875 -1.328125 4.15625q-1.328125 1.453125 -3.84375 1.453125l-3.03125 0zm1.703125 -12.046875l0 10.59375l1.359375 0q1.796875 0 2.609375 -1.015625q0.828125 -1.03125 0.859375 -3.046875l0 -2.390625q0 -2.140625 -0.828125 -3.140625q-0.8125 -1.0 -2.484375 -1.0l-1.515625 0zm17.774017 12.046875l-1.703125 0l-5.421875 -10.40625l0 10.40625l-1.703125 0l0 -13.515625l1.703125 0l5.4375 10.46875l0 -10.46875l1.6875 0l0 13.515625zm8.628967 -3.421875q0 -1.0 -0.546875 -1.53125q-0.546875 -0.546875 -1.984375 -1.046875q-1.421875 -0.515625 -2.1875 -1.078125q-0.75 -0.5625 -1.125 -1.28125q-0.375 -0.71875 -0.375 -1.65625q0 -1.59375 1.0625 -2.625q1.078125 -1.046875 2.8125 -1.046875q1.1875 0 2.109375 0.53125q0.9375 0.53125 1.4375 1.484375q0.5 0.9375 0.5 2.0625l-1.703125 0q0 -1.25 -0.609375 -1.9375q-0.59375 -0.6875 -1.734375 -0.6875q-1.03125 0 -1.59375 0.578125q-0.5625 0.578125 -0.5625 1.625q0 0.84375 0.609375 1.421875q0.609375 0.578125 1.890625 1.03125q2.0 0.65625 2.859375 1.625q0.859375 0.96875 0.859375 2.515625q0 1.640625 -1.078125 2.640625q-1.0625 0.984375 -2.890625 0.984375q-1.1875 0 -2.1875 -0.515625q-0.984375 -0.515625 -1.5625 -1.4375q-0.578125 -0.9375 -0.578125 -2.15625l1.71875 0q0 1.265625 0.6875 1.96875q0.703125 0.6875 1.921875 0.6875q1.109375 0 1.671875 -0.578125q0.578125 -0.578125 0.578125 -1.578125zm6.790161 -2.796875l-1.328125 1.59375l0 4.625l-1.703125 0l0 -13.515625l1.703125 0l0 6.53125l1.109375 -1.484375l3.640625 -5.046875l2.046875 0l-4.390625 5.953125l4.71875 7.5625l-2.03125 0l-3.765625 -6.21875zm13.619324 -0.03125l-4.78125 0l0 4.796875l5.5625 0l0 1.453125l-7.265625 0l0 -13.515625l7.171875 0l0 1.46875l-5.46875 0l0 4.34375l4.78125 0l0 1.453125zm6.295624 -0.46875l2.765625 -6.796875l1.921875 0l-3.84375 8.484375l0 5.03125l-1.6875 0l0 -5.03125l-3.84375 -8.484375l1.921875 0l2.765625 6.796875zm15.055939 6.71875l-1.640625 0l0 -11.4375l-2.84375 1.265625l0 -1.5625l4.234375 -1.84375l0.25 0l0 13.578125z" fill-rule="nonzero"></path><path fill="#cfe2f3" d="m520.4068 284.7115l0 0c0 -5.876648 4.763977 -10.640625 10.640686 -10.640625l157.71082 0c2.8220825 0 5.5285645 1.1210632 7.524109 3.1165771c1.9954834 1.9955139 3.116516 4.701996 3.116516 7.524048l0 42.56128c0 5.876648 -4.763977 10.640625 -10.640625 10.640625l-157.71082 0c-5.876709 0 -10.640686 -4.763977 -10.640686 -10.640625z" fill-rule="nonzero"></path><path fill="#000000" d="m556.73987 311.6934q0.8125 0 1.296875 -0.5q0.5 -0.515625 0.546875 -1.4375l1.546875 0q-0.0625 1.4375 -1.03125 2.390625q-0.96875 0.953125 -2.359375 0.953125q-1.875 0 -2.859375 -1.171875q-0.96875 -1.171875 -0.96875 -3.5l0 -1.09375q0 -2.28125 0.96875 -3.453125q0.984375 -1.1875 2.84375 -1.1875q1.546875 0 2.4375 0.96875q0.90625 0.96875 0.96875 2.65625l-1.546875 0q-0.0625 -1.109375 -0.546875 -1.65625q-0.46875 -0.5625 -1.3125 -0.5625q-1.09375 0 -1.625 0.71875q-0.53125 0.71875 -0.546875 2.359375l0 1.28125q0 1.765625 0.515625 2.5q0.53125 0.734375 1.671875 0.734375zm4.7738647 -4.265625q0 -2.1875 1.0625 -3.453125q1.0625 -1.28125 2.8125 -1.28125q1.75 0 2.8125 1.25q1.0625 1.234375 1.078125 3.375l0 1.0625q0 2.171875 -1.0625 3.453125q-1.046875 1.265625 -2.8125 1.265625q-1.734375 0 -2.796875 -1.234375q-1.046875 -1.234375 -1.09375 -3.34375l0 -1.09375zm1.65625 0.953125q0 1.546875 0.59375 2.4375q0.609375 0.875 1.640625 0.875q2.171875 0 2.234375 -3.125l0 -1.140625q0 -1.53125 -0.609375 -2.421875q-0.609375 -0.90625 -1.640625 -0.90625q-1.015625 0 -1.625 0.90625q-0.59375 0.890625 -0.59375 2.40625l0 0.96875zm9.614563 -5.5l0.03125 0.921875q0.921875 -1.109375 2.421875 -1.109375q1.671875 0 2.34375 1.453125q0.953125 -1.453125 2.640625 -1.453125q2.765625 0 2.828125 3.453125l0 6.765625l-1.625 0l0 -6.609375q0 -1.09375 -0.390625 -1.625q-0.390625 -0.53125 -1.3125 -0.53125q-0.75 0 -1.21875 0.578125q-0.453125 0.578125 -0.53125 1.46875l0 6.71875l-1.65625 0l0 -6.6875q-0.015625 -2.078125 -1.6875 -2.078125q-1.25 0 -1.765625 1.234375l0 7.53125l-1.625 0l0 -10.03125l1.546875 0zm12.60022 9.125q0 -0.4375 0.25 -0.734375q0.265625 -0.296875 0.796875 -0.296875q0.53125 0 0.796875 0.296875q0.28125 0.296875 0.28125 0.734375q0 0.4375 -0.28125 0.734375q-0.265625 0.28125 -0.796875 0.28125q-0.53125 0 -0.796875 -0.28125q-0.25 -0.296875 -0.25 -0.734375zm9.291748 0.90625l0 -13.515625l3.21875 0q2.375 0 3.671875 1.484375q1.3125 1.484375 1.3125 4.15625l0 2.265625q0 2.6875 -1.328125 4.15625q-1.328125 1.453125 -3.84375 1.453125l-3.03125 0zm1.703125 -12.046875l0 10.59375l1.359375 0q1.796875 0 2.609375 -1.015625q0.828125 -1.03125 0.859375 -3.046875l0 -2.390625q0 -2.140625 -0.828125 -3.140625q-0.8125 -1.0 -2.484375 -1.0l-1.515625 0zm17.773987 12.046875l-1.703125 0l-5.421875 -10.40625l0 10.40625l-1.703125 0l0 -13.515625l1.703125 0l5.4375 10.46875l0 -10.46875l1.6875 0l0 13.515625zm8.628967 -3.421875q0 -1.0 -0.546875 -1.53125q-0.546875 -0.546875 -1.984375 -1.046875q-1.421875 -0.515625 -2.1875 -1.078125q-0.75 -0.5625 -1.125 -1.28125q-0.375 -0.71875 -0.375 -1.65625q0 -1.59375 1.0625 -2.625q1.078125 -1.046875 2.8125 -1.046875q1.1875 0 2.109375 0.53125q0.9375 0.53125 1.4375 1.484375q0.5 0.9375 0.5 2.0625l-1.703125 0q0 -1.25 -0.609375 -1.9375q-0.59375 -0.6875 -1.734375 -0.6875q-1.03125 0 -1.59375 0.578125q-0.5625 0.578125 -0.5625 1.625q0 0.84375 0.609375 1.421875q0.609375 0.578125 1.890625 1.03125q2.0 0.65625 2.859375 1.625q0.859375 0.96875 0.859375 2.515625q0 1.640625 -1.078125 2.640625q-1.0625 0.984375 -2.890625 0.984375q-1.1875 0 -2.1875 -0.515625q-0.984375 -0.515625 -1.5625 -1.4375q-0.578125 -0.9375 -0.578125 -2.15625l1.71875 0q0 1.265625 0.6875 1.96875q0.703125 0.6875 1.921875 0.6875q1.109375 0 1.671875 -0.578125q0.578125 -0.578125 0.578125 -1.578125zm6.790222 -2.796875l-1.328125 1.59375l0 4.625l-1.703125 0l0 -13.515625l1.703125 0l0 6.53125l1.109375 -1.484375l3.640625 -5.046875l2.046875 0l-4.390625 5.953125l4.71875 7.5625l-2.03125 0l-3.765625 -6.21875zm13.619324 -0.03125l-4.78125 0l0 4.796875l5.5625 0l0 1.453125l-7.265625 0l0 -13.515625l7.171875 0l0 1.46875l-5.46875 0l0 4.34375l4.78125 0l0 1.453125zm6.2955933 -0.46875l2.765625 -6.796875l1.921875 0l-3.84375 8.484375l0 5.03125l-1.6875 0l0 -5.03125l-3.84375 -8.484375l1.921875 0l2.765625 6.796875zm17.727844 6.71875l-7.5625 0l0 -1.234375l3.859375 -5.109375q0.875 -1.171875 1.203125 -1.921875q0.34375 -0.765625 0.34375 -1.609375q0 -1.078125 -0.5 -1.734375q-0.5 -0.671875 -1.3125 -0.671875q-1.03125 0 -1.59375 0.71875q-0.5625 0.703125 -0.5625 2.03125l-1.640625 0q0 -1.859375 1.015625 -3.0q1.015625 -1.15625 2.78125 -1.15625q1.609375 0 2.53125 0.984375q0.9375 0.984375 0.9375 2.625q0 2.0 -2.09375 4.75l-3.0 3.921875l5.59375 0l0 1.40625z" fill-rule="nonzero"></path><path fill="#cfe2f3" d="m182.8819 393.5829l0 0c0 -5.876648 4.763962 -10.640625 10.640625 -10.640625l183.15967 0c2.8220825 0 5.5285645 1.1210632 7.5240784 3.1165771c1.9955139 1.9954834 3.1165771 4.701996 3.1165771 7.524048l0 42.56125c0 5.8766785 -4.763977 10.6406555 -10.6406555 10.6406555l-183.15967 0c-5.876663 0 -10.640625 -4.763977 -10.640625 -10.6406555z" fill-rule="nonzero"></path><path fill="#000000" d="m218.90633 421.971q-1.875 0 -2.875 -1.109375q-1.0 -1.125 -1.015625 -3.296875l0 -1.203125q0 -2.25 0.96875 -3.515625q0.984375 -1.28125 2.734375 -1.28125q1.765625 0 2.640625 1.125q0.875 1.109375 0.890625 3.484375l0 1.078125l-5.609375 0l0 0.234375q0 1.609375 0.609375 2.34375q0.609375 0.734375 1.75 0.734375q0.71875 0 1.265625 -0.265625q0.5625 -0.28125 1.046875 -0.875l0.859375 1.046875q-1.078125 1.5 -3.265625 1.5zm-0.1875 -9.0q-1.015625 0 -1.515625 0.703125q-0.484375 0.703125 -0.546875 2.171875l3.953125 0l0 -0.21875q-0.0625 -1.4375 -0.515625 -2.046875q-0.453125 -0.609375 -1.375 -0.609375zm8.236008 2.4375l1.71875 -3.65625l1.90625 0l-2.734375 4.953125l2.796875 5.078125l-1.890625 0l-1.765625 -3.75l-1.78125 3.75l-1.890625 0l2.796875 -5.078125l-2.71875 -4.953125l1.875 0l1.6875 3.65625zm10.455063 6.375q-0.140625 -0.328125 -0.21875 -1.09375q-0.859375 1.28125 -2.21875 1.28125q-1.359375 0 -2.125 -0.765625q-0.765625 -0.765625 -0.765625 -2.15625q0 -1.53125 1.03125 -2.421875q1.046875 -0.90625 2.84375 -0.9375l1.21875 0l0 -1.0625q0 -0.890625 -0.40625 -1.265625q-0.390625 -0.390625 -1.21875 -0.390625q-0.734375 0 -1.203125 0.4375q-0.46875 0.4375 -0.46875 1.125l-1.640625 0q0 -0.78125 0.453125 -1.46875q0.46875 -0.703125 1.234375 -1.09375q0.765625 -0.40625 1.71875 -0.40625q1.53125 0 2.328125 0.765625q0.8125 0.765625 0.828125 2.21875l0 5.078125q0.015625 1.15625 0.3125 2.0l0 0.15625l-1.703125 0zm-2.1875 -1.3125q0.609375 0 1.15625 -0.328125q0.546875 -0.328125 0.796875 -0.84375l0 -2.390625l-0.9375 0q-1.171875 0.015625 -1.84375 0.53125q-0.671875 0.5 -0.671875 1.40625q0 0.859375 0.34375 1.25q0.34375 0.375 1.15625 0.375zm7.5145416 -8.71875l0.03125 0.921875q0.921875 -1.109375 2.421875 -1.109375q1.671875 0 2.34375 1.453125q0.953125 -1.453125 2.640625 -1.453125q2.765625 0 2.828125 3.453125l0 6.765625l-1.625 0l0 -6.609375q0 -1.09375 -0.390625 -1.625q-0.390625 -0.53125 -1.3125 -0.53125q-0.75 0 -1.21875 0.578125q-0.453125 0.578125 -0.53125 1.46875l0 6.71875l-1.65625 0l0 -6.6875q-0.015625 -2.078125 -1.6875 -2.078125q-1.25 0 -1.765625 1.234375l0 7.53125l-1.625 0l0 -10.03125l1.546875 0zm19.740875 5.5q0 2.375 -0.859375 3.546875q-0.859375 1.171875 -2.421875 1.171875q-1.515625 0 -2.34375 -1.140625l0 4.8125l-1.6250153 0l0 -13.890625l1.4843903 0l0.078125 1.109375q0.828125 -1.296875 2.375 -1.296875q1.640625 0 2.453125 1.15625q0.828125 1.140625 0.859375 3.4375l0 1.09375zm-1.640625 -0.9375q0 -1.6875 -0.515625 -2.484375q-0.515625 -0.8125 -1.671875 -0.8125q-1.171875 0 -1.796875 1.171875l0 5.234375q0.609375 1.140625 1.8125 1.140625q1.125 0 1.640625 -0.796875q0.53125 -0.8125 0.53125 -2.453125l0 -1.0zm5.356842 5.46875l-1.640625 0l0 -14.25l1.640625 0l0 14.25zm6.084839 0.1875q-1.875 0 -2.875 -1.109375q-1.0 -1.125 -1.015625 -3.296875l0 -1.203125q0 -2.25 0.96875 -3.515625q0.984375 -1.28125 2.734375 -1.28125q1.765625 0 2.640625 1.125q0.875 1.109375 0.890625 3.484375l0 1.078125l-5.609375 0l0 0.234375q0 1.609375 0.609375 2.34375q0.609375 0.734375 1.75 0.734375q0.71875 0 1.265625 -0.265625q0.5625 -0.28125 1.046875 -0.875l0.859375 1.046875q-1.078125 1.5 -3.265625 1.5zm-0.1875 -9.0q-1.015625 0 -1.515625 0.703125q-0.484375 0.703125 -0.546875 2.171875l3.953125 0l0 -0.21875q-0.0625 -1.4375 -0.515625 -2.046875q-0.453125 -0.609375 -1.375 -0.609375zm5.454773 7.90625q0 -0.4375 0.25 -0.734375q0.265625 -0.296875 0.796875 -0.296875q0.53125 0 0.796875 0.296875q0.28125 0.296875 0.28125 0.734375q0 0.4375 -0.28125 0.734375q-0.265625 0.28125 -0.796875 0.28125q-0.53125 0 -0.796875 -0.28125q-0.25 -0.296875 -0.25 -0.734375zm8.285004 -0.3125q0.8125 0 1.296875 -0.5q0.5 -0.515625 0.546875 -1.4375l1.546875 0q-0.0625 1.4375 -1.03125 2.390625q-0.96875 0.953125 -2.359375 0.953125q-1.875 0 -2.859375 -1.171875q-0.96875 -1.171875 -0.96875 -3.5l0 -1.09375q0 -2.28125 0.96875 -3.453125q0.984375 -1.1875 2.84375 -1.1875q1.546875 0 2.4375 0.96875q0.90625 0.96875 0.96875 2.65625l-1.546875 0q-0.0625 -1.109375 -0.546875 -1.65625q-0.46875 -0.5625 -1.3125 -0.5625q-1.09375 0 -1.625 0.71875q-0.53125 0.71875 -0.546875 2.359375l0 1.28125q0 1.765625 0.515625 2.5q0.53125 0.734375 1.671875 0.734375zm4.773834 -4.265625q0 -2.1875 1.0625 -3.453125q1.0625 -1.28125 2.8125 -1.28125q1.75 0 2.8125 1.25q1.0625 1.234375 1.078125 3.375l0 1.0625q0 2.171875 -1.0625 3.453125q-1.046875 1.265625 -2.8125 1.265625q-1.734375 0 -2.796875 -1.234375q-1.046875 -1.234375 -1.09375 -3.34375l0 -1.09375zm1.65625 0.953125q0 1.546875 0.59375 2.4375q0.609375 0.875 1.640625 0.875q2.171875 0 2.234375 -3.125l0 -1.140625q0 -1.53125 -0.609375 -2.421875q-0.609375 -0.90625 -1.640625 -0.90625q-1.015625 0 -1.625 0.90625q-0.59375 0.890625 -0.59375 2.40625l0 0.96875zm9.614563 -5.5l0.03125 0.921875q0.921875 -1.109375 2.421875 -1.109375q1.671875 0 2.34375 1.453125q0.953125 -1.453125 2.640625 -1.453125q2.765625 0 2.828125 3.453125l0 6.765625l-1.625 0l0 -6.609375q0 -1.09375 -0.390625 -1.625q-0.390625 -0.53125 -1.3125 -0.53125q-0.75 0 -1.21875 0.578125q-0.453125 0.578125 -0.53125 1.46875l0 6.71875l-1.65625 0l0 -6.6875q-0.015625 -2.078125 -1.6875 -2.078125q-1.25 0 -1.765625 1.234375l0 7.53125l-1.625 0l0 -10.03125l1.546875 0zm12.60022 9.125q0 -0.4375 0.25 -0.734375q0.265625 -0.296875 0.796875 -0.296875q0.53125 0 0.796875 0.296875q0.28125 0.296875 0.28125 0.734375q0 0.4375 -0.28125 0.734375q-0.265625 0.28125 -0.796875 0.28125q-0.53125 0 -0.796875 -0.28125q-0.25 -0.296875 -0.25 -0.734375zm9.291748 0.90625l0 -13.515625l3.21875 0q2.375 0 3.671875 1.484375q1.3125 1.484375 1.3125 4.15625l0 2.265625q0 2.6875 -1.328125 4.15625q-1.328125 1.453125 -3.84375 1.453125l-3.03125 0zm1.703125 -12.046875l0 10.59375l1.359375 0q1.796875 0 2.609375 -1.015625q0.828125 -1.03125 0.859375 -3.046875l0 -2.390625q0 -2.140625 -0.828125 -3.140625q-0.8125 -1.0 -2.484375 -1.0l-1.515625 0zm14.852142 8.625q0 -1.0 -0.546875 -1.53125q-0.546875 -0.546875 -1.984375 -1.046875q-1.421875 -0.515625 -2.1875 -1.078125q-0.75 -0.5625 -1.125 -1.28125q-0.375 -0.71875 -0.375 -1.65625q0 -1.59375 1.0625 -2.625q1.078125 -1.046875 2.8125 -1.046875q1.1875 0 2.109375 0.53125q0.9375 0.53125 1.4375 1.484375q0.5 0.9375 0.5 2.0625l-1.703125 0q0 -1.25 -0.609375 -1.9375q-0.59375 -0.6875 -1.734375 -0.6875q-1.03125 0 -1.59375 0.578125q-0.5625 0.578125 -0.5625 1.625q0 0.84375 0.609375 1.421875q0.609375 0.578125 1.890625 1.03125q2.0 0.65625 2.859375 1.625q0.859375 0.96875 0.859375 2.515625q0 1.640625 -1.078125 2.640625q-1.0625 0.984375 -2.890625 0.984375q-1.1875 0 -2.1875 -0.515625q-0.984375 -0.515625 -1.5625 -1.4375q-0.578125 -0.9375 -0.578125 -2.15625l1.71875 0q0 1.265625 0.6875 1.96875q0.703125 0.6875 1.921875 0.6875q1.109375 0 1.671875 -0.578125q0.578125 -0.578125 0.578125 -1.578125zm12.5469055 3.421875l-1.640625 0l0 -11.4375l-2.84375 1.265625l0 -1.5625l4.234375 -1.84375l0.25 0l0 13.578125z" fill-rule="nonzero"></path><path fill="#cfe2f3" d="m520.4068 389.95297l0 0c0 -5.876648 4.763977 -10.640625 10.640686 -10.640625l183.15967 0c2.8220825 0 5.5285645 1.1210632 7.524048 3.1165466c1.9954834 1.9955139 3.1165771 4.701996 3.1165771 7.5240784l0 42.56125c0 5.876648 -4.763977 10.640625 -10.640625 10.640625l-183.15967 0c-5.876709 0 -10.640686 -4.763977 -10.640686 -10.640625z" fill-rule="nonzero"></path><path fill="#000000" d="m556.4313 418.3411q-1.875 0 -2.875 -1.109375q-1.0 -1.125 -1.015625 -3.296875l0 -1.203125q0 -2.25 0.96875 -3.515625q0.984375 -1.28125 2.734375 -1.28125q1.765625 0 2.640625 1.125q0.875 1.109375 0.890625 3.484375l0 1.078125l-5.609375 0l0 0.234375q0 1.609375 0.609375 2.34375q0.609375 0.734375 1.75 0.734375q0.71875 0 1.265625 -0.265625q0.5625 -0.28125 1.046875 -0.875l0.859375 1.046875q-1.078125 1.5 -3.265625 1.5zm-0.1875 -9.0q-1.015625 0 -1.515625 0.703125q-0.484375 0.703125 -0.546875 2.171875l3.953125 0l0 -0.21875q-0.0625 -1.4375 -0.515625 -2.046875q-0.453125 -0.609375 -1.375 -0.609375zm8.236023 2.4375l1.71875 -3.65625l1.90625 0l-2.734375 4.953125l2.796875 5.078125l-1.890625 0l-1.765625 -3.75l-1.78125 3.75l-1.890625 0l2.796875 -5.078125l-2.71875 -4.953125l1.875 0l1.6875 3.65625zm10.455017 6.375q-0.140625 -0.328125 -0.21875 -1.09375q-0.859375 1.28125 -2.21875 1.28125q-1.359375 0 -2.125 -0.765625q-0.765625 -0.765625 -0.765625 -2.15625q0 -1.53125 1.03125 -2.421875q1.046875 -0.90625 2.84375 -0.9375l1.21875 0l0 -1.0625q0 -0.890625 -0.40625 -1.265625q-0.390625 -0.390625 -1.21875 -0.390625q-0.734375 0 -1.203125 0.4375q-0.46875 0.4375 -0.46875 1.125l-1.640625 0q0 -0.78125 0.453125 -1.46875q0.46875 -0.703125 1.234375 -1.09375q0.765625 -0.40625 1.71875 -0.40625q1.53125 0 2.328125 0.765625q0.8125 0.765625 0.828125 2.21875l0 5.078125q0.015625 1.15625 0.3125 2.0l0 0.15625l-1.703125 0zm-2.1875 -1.3125q0.609375 0 1.15625 -0.328125q0.546875 -0.328125 0.796875 -0.84375l0 -2.390625l-0.9375 0q-1.171875 0.015625 -1.84375 0.53125q-0.671875 0.5 -0.671875 1.40625q0 0.859375 0.34375 1.25q0.34375 0.375 1.15625 0.375zm7.5145874 -8.71875l0.03125 0.921875q0.921875 -1.109375 2.421875 -1.109375q1.671875 0 2.34375 1.453125q0.953125 -1.453125 2.640625 -1.453125q2.765625 0 2.828125 3.453125l0 6.765625l-1.625 0l0 -6.609375q0 -1.09375 -0.390625 -1.625q-0.390625 -0.53125 -1.3125 -0.53125q-0.75 0 -1.21875 0.578125q-0.453125 0.578125 -0.53125 1.46875l0 6.71875l-1.65625 0l0 -6.6875q-0.015625 -2.078125 -1.6875 -2.078125q-1.25 0 -1.765625 1.234375l0 7.53125l-1.625 0l0 -10.03125l1.546875 0zm19.740845 5.5q0 2.375 -0.859375 3.546875q-0.859375 1.171875 -2.421875 1.171875q-1.515625 0 -2.34375 -1.140625l0 4.8125l-1.625 0l0 -13.890625l1.484375 0l0.078125 1.109375q0.828125 -1.296875 2.375 -1.296875q1.640625 0 2.453125 1.15625q0.828125 1.140625 0.859375 3.4375l0 1.09375zm-1.640625 -0.9375q0 -1.6875 -0.515625 -2.484375q-0.515625 -0.8125 -1.671875 -0.8125q-1.171875 0 -1.796875 1.171875l0 5.234375q0.609375 1.140625 1.8125 1.140625q1.125 0 1.640625 -0.796875q0.53125 -0.8125 0.53125 -2.453125l0 -1.0zm5.3568115 5.46875l-1.640625 0l0 -14.25l1.640625 0l0 14.25zm6.0849 0.1875q-1.875 0 -2.875 -1.109375q-1.0 -1.125 -1.015625 -3.296875l0 -1.203125q0 -2.25 0.96875 -3.515625q0.984375 -1.28125 2.734375 -1.28125q1.765625 0 2.640625 1.125q0.875 1.109375 0.890625 3.484375l0 1.078125l-5.609375 0l0 0.234375q0 1.609375 0.609375 2.34375q0.609375 0.734375 1.75 0.734375q0.71875 0 1.265625 -0.265625q0.5625 -0.28125 1.046875 -0.875l0.859375 1.046875q-1.078125 1.5 -3.265625 1.5zm-0.1875 -9.0q-1.015625 0 -1.515625 0.703125q-0.484375 0.703125 -0.546875 2.171875l3.953125 0l0 -0.21875q-0.0625 -1.4375 -0.515625 -2.046875q-0.453125 -0.609375 -1.375 -0.609375zm5.454712 7.90625q0 -0.4375 0.25 -0.734375q0.265625 -0.296875 0.796875 -0.296875q0.53125 0 0.796875 0.296875q0.28125 0.296875 0.28125 0.734375q0 0.4375 -0.28125 0.734375q-0.265625 0.28125 -0.796875 0.28125q-0.53125 0 -0.796875 -0.28125q-0.25 -0.296875 -0.25 -0.734375zm8.285034 -0.3125q0.8125 0 1.296875 -0.5q0.5 -0.515625 0.546875 -1.4375l1.546875 0q-0.0625 1.4375 -1.03125 2.390625q-0.96875 0.953125 -2.359375 0.953125q-1.875 0 -2.859375 -1.171875q-0.96875 -1.171875 -0.96875 -3.5l0 -1.09375q0 -2.28125 0.96875 -3.453125q0.984375 -1.1875 2.84375 -1.1875q1.546875 0 2.4375 0.96875q0.90625 0.96875 0.96875 2.65625l-1.546875 0q-0.0625 -1.109375 -0.546875 -1.65625q-0.46875 -0.5625 -1.3125 -0.5625q-1.09375 0 -1.625 0.71875q-0.53125 0.71875 -0.546875 2.359375l0 1.28125q0 1.765625 0.515625 2.5q0.53125 0.734375 1.671875 0.734375zm4.7738647 -4.265625q0 -2.1875 1.0625 -3.453125q1.0625 -1.28125 2.8125 -1.28125q1.75 0 2.8125 1.25q1.0625 1.234375 1.078125 3.375l0 1.0625q0 2.171875 -1.0625 3.453125q-1.046875 1.265625 -2.8125 1.265625q-1.734375 0 -2.796875 -1.234375q-1.046875 -1.234375 -1.09375 -3.34375l0 -1.09375zm1.65625 0.953125q0 1.546875 0.59375 2.4375q0.609375 0.875 1.640625 0.875q2.171875 0 2.234375 -3.125l0 -1.140625q0 -1.53125 -0.609375 -2.421875q-0.609375 -0.90625 -1.640625 -0.90625q-1.015625 0 -1.625 0.90625q-0.59375 0.890625 -0.59375 2.40625l0 0.96875zm9.614563 -5.5l0.03125 0.921875q0.921875 -1.109375 2.421875 -1.109375q1.671875 0 2.34375 1.453125q0.953125 -1.453125 2.640625 -1.453125q2.765625 0 2.828125 3.453125l0 6.765625l-1.625 0l0 -6.609375q0 -1.09375 -0.390625 -1.625q-0.390625 -0.53125 -1.3125 -0.53125q-0.75 0 -1.21875 0.578125q-0.453125 0.578125 -0.53125 1.46875l0 6.71875l-1.65625 0l0 -6.6875q-0.015625 -2.078125 -1.6875 -2.078125q-1.25 0 -1.765625 1.234375l0 7.53125l-1.625 0l0 -10.03125l1.546875 0zm12.60022 9.125q0 -0.4375 0.25 -0.734375q0.265625 -0.296875 0.796875 -0.296875q0.53125 0 0.796875 0.296875q0.28125 0.296875 0.28125 0.734375q0 0.4375 -0.28125 0.734375q-0.265625 0.28125 -0.796875 0.28125q-0.53125 0 -0.796875 -0.28125q-0.25 -0.296875 -0.25 -0.734375zm9.291748 0.90625l0 -13.515625l3.21875 0q2.375 0 3.671875 1.484375q1.3125 1.484375 1.3125 4.15625l0 2.265625q0 2.6875 -1.328125 4.15625q-1.328125 1.453125 -3.84375 1.453125l-3.03125 0zm1.703125 -12.046875l0 10.59375l1.359375 0q1.796875 0 2.609375 -1.015625q0.828125 -1.03125 0.859375 -3.046875l0 -2.390625q0 -2.140625 -0.828125 -3.140625q-0.8125 -1.0 -2.484375 -1.0l-1.515625 0zm14.852112 8.625q0 -1.0 -0.546875 -1.53125q-0.546875 -0.546875 -1.984375 -1.046875q-1.421875 -0.515625 -2.1875 -1.078125q-0.75 -0.5625 -1.125 -1.28125q-0.375 -0.71875 -0.375 -1.65625q0 -1.59375 1.0625 -2.625q1.078125 -1.046875 2.8125 -1.046875q1.1875 0 2.109375 0.53125q0.9375 0.53125 1.4375 1.484375q0.5 0.9375 0.5 2.0625l-1.703125 0q0 -1.25 -0.609375 -1.9375q-0.59375 -0.6875 -1.734375 -0.6875q-1.03125 0 -1.59375 0.578125q-0.5625 0.578125 -0.5625 1.625q0 0.84375 0.609375 1.421875q0.609375 0.578125 1.890625 1.03125q2.0 0.65625 2.859375 1.625q0.859375 0.96875 0.859375 2.515625q0 1.640625 -1.078125 2.640625q-1.0625 0.984375 -2.890625 0.984375q-1.1875 0 -2.1875 -0.515625q-0.984375 -0.515625 -1.5625 -1.4375q-0.578125 -0.9375 -0.578125 -2.15625l1.71875 0q0 1.265625 0.6875 1.96875q0.703125 0.6875 1.921875 0.6875q1.109375 0 1.671875 -0.578125q0.578125 -0.578125 0.578125 -1.578125zm15.218811 3.421875l-7.5625 0l0 -1.234375l3.859375 -5.109375q0.875 -1.171875 1.203125 -1.921875q0.34375 -0.765625 0.34375 -1.609375q0 -1.078125 -0.5 -1.734375q-0.5 -0.671875 -1.3125 -0.671875q-1.03125 0 -1.59375 0.71875q-0.5625 0.703125 -0.5625 2.03125l-1.640625 0q0 -1.859375 1.015625 -3.0q1.015625 -1.15625 2.78125 -1.15625q1.609375 0 2.53125 0.984375q0.9375 0.984375 0.9375 2.625q0 2.0 -2.09375 4.75l-3.0 3.921875l5.59375 0l0 1.40625z" fill-rule="nonzero"></path><path fill="#d9ead3" d="m221.87401 504.27188l0 0c0 -5.8766785 4.763977 -10.6406555 10.64064 -10.6406555l144.16754 0c2.8220825 0 5.5285645 1.1210632 7.5240784 3.1165771c1.9955139 1.9955139 3.1165771 4.701996 3.1165771 7.5240784l0 42.56125c0 5.876648 -4.763977 10.640625 -10.6406555 10.640625l-144.16754 0l0 0c-5.876663 0 -10.64064 -4.763977 -10.64064 -10.640625z" fill-rule="nonzero"></path><path fill="#000000" d="m257.43668 521.66q-1.8749847 0 -2.8749847 -1.109375q-1.0 -1.125 -1.015625 -3.296875l0 -1.203125q0 -2.25 0.96875 -3.515625q0.984375 -1.2812195 2.7343597 -1.2812195q1.765625 0 2.640625 1.1249695q0.875 1.109375 0.890625 3.484375l0 1.078125l-5.6093597 0l0 0.234375q0 1.609375 0.609375 2.34375q0.60935974 0.734375 1.7499847 0.734375q0.71875 0 1.265625 -0.265625q0.5625 -0.28125 1.046875 -0.875l0.859375 1.046875q-1.078125 1.5 -3.265625 1.5zm-0.1875 -9.0q-1.015625 0 -1.5156097 0.703125q-0.484375 0.703125 -0.546875 2.171875l3.9531097 0l0 -0.21875q-0.0625 -1.4375 -0.515625 -2.046875q-0.453125 -0.609375 -1.375 -0.609375zm8.236023 2.4375l1.71875 -3.6562195l1.90625 0l-2.734375 4.9530945l2.796875 5.078125l-1.890625 0l-1.765625 -3.75l-1.78125 3.75l-1.890625 0l2.796875 -5.078125l-2.71875 -4.9530945l1.875 0l1.6875 3.6562195zm10.455048 6.375q-0.140625 -0.328125 -0.21875 -1.09375q-0.859375 1.28125 -2.21875 1.28125q-1.359375 0 -2.125 -0.765625q-0.765625 -0.765625 -0.765625 -2.15625q0 -1.53125 1.03125 -2.421875q1.046875 -0.90625 2.84375 -0.9375l1.21875 0l0 -1.0625q0 -0.890625 -0.40625 -1.265625q-0.390625 -0.390625 -1.21875 -0.390625q-0.734375 0 -1.203125 0.4375q-0.46875 0.4375 -0.46875 1.125l-1.640625 0q0 -0.78125 0.453125 -1.46875q0.46875 -0.703125 1.234375 -1.0937195q0.765625 -0.40625 1.71875 -0.40625q1.53125 0 2.328125 0.7655945q0.8125 0.765625 0.828125 2.21875l0 5.078125q0.015625 1.15625 0.3125 2.0l0 0.15625l-1.703125 0zm-2.1875 -1.3125q0.609375 0 1.15625 -0.328125q0.546875 -0.328125 0.796875 -0.84375l0 -2.390625l-0.9375 0q-1.171875 0.015625 -1.84375 0.53125q-0.671875 0.5 -0.671875 1.40625q0 0.859375 0.34375 1.25q0.34375 0.375 1.15625 0.375zm7.514557 -8.7187195l0.03125 0.9218445q0.921875 -1.1093445 2.421875 -1.1093445q1.671875 0 2.34375 1.4530945q0.953125 -1.4530945 2.640625 -1.4530945q2.765625 0 2.828125 3.4530945l0 6.765625l-1.625 0l0 -6.609375q0 -1.09375 -0.390625 -1.625q-0.390625 -0.53125 -1.3125 -0.53125q-0.75 0 -1.21875 0.578125q-0.453125 0.578125 -0.53125 1.46875l0 6.71875l-1.65625 0l0 -6.6875q-0.015625 -2.078125 -1.6875 -2.078125q-1.25 0 -1.765625 1.234375l0 7.53125l-1.625 0l0 -10.0312195l1.546875 0zm19.740845 5.4999695q0 2.375 -0.859375 3.546875q-0.859375 1.171875 -2.421875 1.171875q-1.515625 0 -2.34375 -1.140625l0 4.8125l-1.625 0l0 -13.8905945l1.484375 0l0.078125 1.1093445q0.828125 -1.2968445 2.375 -1.2968445q1.640625 0 2.453125 1.1562195q0.828125 1.140625 0.859375 3.4375l0 1.09375zm-1.640625 -0.9375q0 -1.6875 -0.515625 -2.484375q-0.515625 -0.8125 -1.671875 -0.8125q-1.171875 0 -1.796875 1.171875l0 5.234375q0.609375 1.140625 1.8125 1.140625q1.125 0 1.640625 -0.796875q0.53125 -0.8125 0.53125 -2.453125l0 -1.0zm5.356842 5.46875l-1.640625 0l0 -14.2499695l1.640625 0l0 14.2499695zm6.0848694 0.1875q-1.875 0 -2.875 -1.109375q-1.0 -1.125 -1.015625 -3.296875l0 -1.203125q0 -2.25 0.96875 -3.515625q0.984375 -1.2812195 2.734375 -1.2812195q1.765625 0 2.640625 1.1249695q0.875 1.109375 0.890625 3.484375l0 1.078125l-5.609375 0l0 0.234375q0 1.609375 0.609375 2.34375q0.609375 0.734375 1.75 0.734375q0.71875 0 1.265625 -0.265625q0.5625 -0.28125 1.046875 -0.875l0.859375 1.046875q-1.078125 1.5 -3.265625 1.5zm-0.1875 -9.0q-1.015625 0 -1.515625 0.703125q-0.484375 0.703125 -0.546875 2.171875l3.953125 0l0 -0.21875q-0.0625 -1.4375 -0.515625 -2.046875q-0.453125 -0.609375 -1.375 -0.609375zm5.4547424 7.90625q0 -0.4375 0.25 -0.734375q0.265625 -0.296875 0.796875 -0.296875q0.53125 0 0.796875 0.296875q0.28125 0.296875 0.28125 0.734375q0 0.4375 -0.28125 0.734375q-0.265625 0.28125 -0.796875 0.28125q-0.53125 0 -0.796875 -0.28125q-0.25 -0.296875 -0.25 -0.734375zm8.285034 -0.3125q0.8125 0 1.296875 -0.5q0.5 -0.515625 0.546875 -1.4375l1.546875 0q-0.0625 1.4375 -1.03125 2.390625q-0.96875 0.953125 -2.359375 0.953125q-1.875 0 -2.859375 -1.171875q-0.96875 -1.171875 -0.96875 -3.5l0 -1.09375q0 -2.28125 0.96875 -3.453125q0.984375 -1.1874695 2.84375 -1.1874695q1.546875 0 2.4375 0.9687195q0.90625 0.96875 0.96875 2.65625l-1.546875 0q-0.0625 -1.109375 -0.546875 -1.65625q-0.46875 -0.5625 -1.3125 -0.5625q-1.09375 0 -1.625 0.71875q-0.53125 0.71875 -0.546875 2.359375l0 1.28125q0 1.765625 0.515625 2.5q0.53125 0.734375 1.671875 0.734375zm4.773834 -4.265625q0 -2.1875 1.0625 -3.453125q1.0625 -1.2812195 2.8125 -1.2812195q1.75 0 2.8125 1.2499695q1.0625 1.234375 1.078125 3.375l0 1.0625q0 2.171875 -1.0625 3.453125q-1.046875 1.265625 -2.8125 1.265625q-1.734375 0 -2.796875 -1.234375q-1.046875 -1.234375 -1.09375 -3.34375l0 -1.09375zm1.65625 0.953125q0 1.546875 0.59375 2.4375q0.609375 0.875 1.640625 0.875q2.171875 0 2.234375 -3.125l0 -1.140625q0 -1.53125 -0.609375 -2.421875q-0.609375 -0.90625 -1.640625 -0.90625q-1.015625 0 -1.625 0.90625q-0.59375 0.890625 -0.59375 2.40625l0 0.96875zm9.614563 -5.4999695l0.03125 0.9218445q0.921875 -1.1093445 2.421875 -1.1093445q1.671875 0 2.34375 1.4530945q0.953125 -1.4530945 2.640625 -1.4530945q2.765625 0 2.828125 3.4530945l0 6.765625l-1.625 0l0 -6.609375q0 -1.09375 -0.390625 -1.625q-0.390625 -0.53125 -1.3125 -0.53125q-0.75 0 -1.21875 0.578125q-0.453125 0.578125 -0.53125 1.46875l0 6.71875l-1.65625 0l0 -6.6875q-0.015625 -2.078125 -1.6875 -2.078125q-1.25 0 -1.765625 1.234375l0 7.53125l-1.625 0l0 -10.0312195l1.546875 0zm12.60022 9.1249695q0 -0.4375 0.25 -0.734375q0.265625 -0.296875 0.796875 -0.296875q0.53125 0 0.796875 0.296875q0.28125 0.296875 0.28125 0.734375q0 0.4375 -0.28125 0.734375q-0.265625 0.28125 -0.796875 0.28125q-0.53125 0 -0.796875 -0.28125q-0.25 -0.296875 -0.25 -0.734375z" fill-rule="nonzero"></path><path fill="#000000" d="m268.77094 543.4725l0 -13.515625l3.21875 0q2.375 0 3.671875 1.484375q1.3125 1.484375 1.3125 4.15625l0 2.265625q0 2.6875 -1.328125 4.15625q-1.328125 1.453125 -3.84375 1.453125l-3.03125 0zm1.703125 -12.046875l0 10.59375l1.359375 0q1.796875 0 2.609375 -1.015625q0.828125 -1.03125 0.859375 -3.046875l0 -2.390625q0 -2.140625 -0.828125 -3.140625q-0.8125 -1.0 -2.484375 -1.0l-1.515625 0zm17.773987 12.046875l-1.703125 0l-5.421875 -10.40625l0 10.40625l-1.703125 0l0 -13.515625l1.703125 0l5.4375 10.46875l0 -10.46875l1.6875 0l0 13.515625zm8.628967 -3.421875q0 -1.0 -0.546875 -1.53125q-0.546875 -0.546875 -1.984375 -1.046875q-1.421875 -0.515625 -2.1875 -1.078125q-0.75 -0.5625 -1.125 -1.28125q-0.375 -0.71875 -0.375 -1.65625q0 -1.59375 1.0625 -2.625q1.078125 -1.046875 2.8125 -1.046875q1.1875 0 2.109375 0.53125q0.9375 0.53125 1.4375 1.484375q0.5 0.9375 0.5 2.0625l-1.703125 0q0 -1.25 -0.609375 -1.9375q-0.59375 -0.6875 -1.734375 -0.6875q-1.03125 0 -1.59375 0.578125q-0.5625 0.578125 -0.5625 1.625q0 0.84375 0.609375 1.421875q0.609375 0.578125 1.890625 1.03125q2.0 0.65625 2.859375 1.625q0.859375 0.96875 0.859375 2.515625q0 1.640625 -1.078125 2.640625q-1.0625 0.984375 -2.890625 0.984375q-1.1875 0 -2.1875 -0.515625q-0.984375 -0.515625 -1.5625 -1.4375q-0.578125 -0.9375 -0.578125 -2.15625l1.71875 0q0 1.265625 0.6875 1.96875q0.703125 0.6875 1.921875 0.6875q1.109375 0 1.671875 -0.578125q0.578125 -0.578125 0.578125 -1.578125zm6.7901917 -2.796875l-1.328125 1.59375l0 4.625l-1.703125 0l0 -13.515625l1.703125 0l0 6.53125l1.109375 -1.484375l3.640625 -5.046875l2.046875 0l-4.390625 5.953125l4.71875 7.5625l-2.03125 0l-3.765625 -6.21875zm13.619324 -0.03125l-4.78125 0l0 4.796875l5.5625 0l0 1.453125l-7.265625 0l0 -13.515625l7.171875 0l0 1.46875l-5.46875 0l0 4.34375l4.78125 0l0 1.453125zm6.2955933 -0.46875l2.765625 -6.796875l1.921875 0l-3.84375 8.484375l0 5.03125l-1.6875 0l0 -5.03125l-3.84375 -8.484375l1.921875 0l2.765625 6.796875zm15.055969 6.71875l-1.640625 0l0 -11.4375l-2.84375 1.265625l0 -1.5625l4.234375 -1.84375l0.25 0l0 13.578125z" fill-rule="nonzero"></path><path fill="#d9ead3" d="m520.4068 504.2732l0 0c0 -5.8766785 4.763977 -10.6406555 10.640686 -10.6406555l144.16754 0c2.8220825 0 5.5285645 1.1210632 7.524048 3.1165771c1.9954834 1.9955139 3.1165771 4.701996 3.1165771 7.5240784l0 42.56122c0 5.876709 -4.763977 10.640625 -10.640625 10.640625l-144.16754 0l0 0c-5.876709 0 -10.640686 -4.763916 -10.640686 -10.640625z" fill-rule="nonzero"></path><path fill="#000000" d="m555.9695 521.6613q-1.875 0 -2.875 -1.109375q-1.0 -1.125 -1.015625 -3.296875l0 -1.203125q0 -2.25 0.96875 -3.515625q0.984375 -1.28125 2.734375 -1.28125q1.765625 0 2.640625 1.125q0.875 1.109375 0.890625 3.484375l0 1.078125l-5.609375 0l0 0.234375q0 1.609375 0.609375 2.34375q0.609375 0.734375 1.75 0.734375q0.71875 0 1.265625 -0.265625q0.5625 -0.28125 1.046875 -0.875l0.859375 1.046875q-1.078125 1.5 -3.265625 1.5zm-0.1875 -9.0q-1.015625 0 -1.515625 0.703125q-0.484375 0.703125 -0.546875 2.171875l3.953125 0l0 -0.21875q-0.0625 -1.4375 -0.515625 -2.046875q-0.453125 -0.609375 -1.375 -0.609375zm8.236023 2.4375l1.71875 -3.65625l1.90625 0l-2.734375 4.953125l2.796875 5.078125l-1.890625 0l-1.765625 -3.75l-1.78125 3.75l-1.890625 0l2.796875 -5.078125l-2.71875 -4.953125l1.875 0l1.6875 3.65625zm10.455078 6.375q-0.140625 -0.328125 -0.21875 -1.09375q-0.859375 1.28125 -2.21875 1.28125q-1.359375 0 -2.125 -0.765625q-0.765625 -0.765625 -0.765625 -2.15625q0 -1.53125 1.03125 -2.421875q1.046875 -0.90625 2.84375 -0.9375l1.21875 0l0 -1.0625q0 -0.890625 -0.40625 -1.265625q-0.390625 -0.390625 -1.21875 -0.390625q-0.734375 0 -1.203125 0.4375q-0.46875 0.4375 -0.46875 1.125l-1.640625 0q0 -0.78125 0.453125 -1.46875q0.46875 -0.703125 1.234375 -1.09375q0.765625 -0.40625 1.71875 -0.40625q1.53125 0 2.328125 0.765625q0.8125 0.765625 0.828125 2.21875l0 5.078125q0.015625 1.15625 0.3125 2.0l0 0.15625l-1.703125 0zm-2.1875 -1.3125q0.609375 0 1.15625 -0.328125q0.546875 -0.328125 0.796875 -0.84375l0 -2.390625l-0.9375 0q-1.171875 0.015625 -1.84375 0.53125q-0.671875 0.5 -0.671875 1.40625q0 0.859375 0.34375 1.25q0.34375 0.375 1.15625 0.375zm7.5145264 -8.71875l0.03125 0.921875q0.921875 -1.109375 2.421875 -1.109375q1.671875 0 2.34375 1.453125q0.953125 -1.453125 2.640625 -1.453125q2.765625 0 2.828125 3.453125l0 6.765625l-1.625 0l0 -6.609375q0 -1.09375 -0.390625 -1.625q-0.390625 -0.53125 -1.3125 -0.53125q-0.75 0 -1.21875 0.578125q-0.453125 0.578125 -0.53125 1.46875l0 6.71875l-1.65625 0l0 -6.6875q-0.015625 -2.078125 -1.6875 -2.078125q-1.25 0 -1.765625 1.234375l0 7.53125l-1.625 0l0 -10.03125l1.546875 0zm19.740845 5.5q0 2.375 -0.859375 3.546875q-0.859375 1.171875 -2.421875 1.171875q-1.515625 0 -2.34375 -1.140625l0 4.8125l-1.625 0l0 -13.890625l1.484375 0l0.078125 1.109375q0.828125 -1.296875 2.375 -1.296875q1.640625 0 2.453125 1.15625q0.828125 1.140625 0.859375 3.4375l0 1.09375zm-1.640625 -0.9375q0 -1.6875 -0.515625 -2.484375q-0.515625 -0.8125 -1.671875 -0.8125q-1.171875 0 -1.796875 1.171875l0 5.234375q0.609375 1.140625 1.8125 1.140625q1.125 0 1.640625 -0.796875q0.53125 -0.8125 0.53125 -2.453125l0 -1.0zm5.3568726 5.46875l-1.640625 0l0 -14.25l1.640625 0l0 14.25zm6.084839 0.1875q-1.875 0 -2.875 -1.109375q-1.0 -1.125 -1.015625 -3.296875l0 -1.203125q0 -2.25 0.96875 -3.515625q0.984375 -1.28125 2.734375 -1.28125q1.765625 0 2.640625 1.125q0.875 1.109375 0.890625 3.484375l0 1.078125l-5.609375 0l0 0.234375q0 1.609375 0.609375 2.34375q0.609375 0.734375 1.75 0.734375q0.71875 0 1.265625 -0.265625q0.5625 -0.28125 1.046875 -0.875l0.859375 1.046875q-1.078125 1.5 -3.265625 1.5zm-0.1875 -9.0q-1.015625 0 -1.515625 0.703125q-0.484375 0.703125 -0.546875 2.171875l3.953125 0l0 -0.21875q-0.0625 -1.4375 -0.515625 -2.046875q-0.453125 -0.609375 -1.375 -0.609375zm5.454773 7.90625q0 -0.4375 0.25 -0.734375q0.265625 -0.296875 0.796875 -0.296875q0.53125 0 0.796875 0.296875q0.28125 0.296875 0.28125 0.734375q0 0.4375 -0.28125 0.734375q-0.265625 0.28125 -0.796875 0.28125q-0.53125 0 -0.796875 -0.28125q-0.25 -0.296875 -0.25 -0.734375zm8.284973 -0.3125q0.8125 0 1.296875 -0.5q0.5 -0.515625 0.546875 -1.4375l1.546875 0q-0.0625 1.4375 -1.03125 2.390625q-0.96875 0.953125 -2.359375 0.953125q-1.875 0 -2.859375 -1.171875q-0.96875 -1.171875 -0.96875 -3.5l0 -1.09375q0 -2.28125 0.96875 -3.453125q0.984375 -1.1875 2.84375 -1.1875q1.546875 0 2.4375 0.96875q0.90625 0.96875 0.96875 2.65625l-1.546875 0q-0.0625 -1.109375 -0.546875 -1.65625q-0.46875 -0.5625 -1.3125 -0.5625q-1.09375 0 -1.625 0.71875q-0.53125 0.71875 -0.546875 2.359375l0 1.28125q0 1.765625 0.515625 2.5q0.53125 0.734375 1.671875 0.734375zm4.7738647 -4.265625q0 -2.1875 1.0625 -3.453125q1.0625 -1.28125 2.8125 -1.28125q1.75 0 2.8125 1.25q1.0625 1.234375 1.078125 3.375l0 1.0625q0 2.171875 -1.0625 3.453125q-1.046875 1.265625 -2.8125 1.265625q-1.734375 0 -2.796875 -1.234375q-1.046875 -1.234375 -1.09375 -3.34375l0 -1.09375zm1.65625 0.953125q0 1.546875 0.59375 2.4375q0.609375 0.875 1.640625 0.875q2.171875 0 2.234375 -3.125l0 -1.140625q0 -1.53125 -0.609375 -2.421875q-0.609375 -0.90625 -1.640625 -0.90625q-1.015625 0 -1.625 0.90625q-0.59375 0.890625 -0.59375 2.40625l0 0.96875zm9.614563 -5.5l0.03125 0.921875q0.921875 -1.109375 2.421875 -1.109375q1.671875 0 2.34375 1.453125q0.953125 -1.453125 2.640625 -1.453125q2.765625 0 2.828125 3.453125l0 6.765625l-1.625 0l0 -6.609375q0 -1.09375 -0.390625 -1.625q-0.390625 -0.53125 -1.3125 -0.53125q-0.75 0 -1.21875 0.578125q-0.453125 0.578125 -0.53125 1.46875l0 6.71875l-1.65625 0l0 -6.6875q-0.015625 -2.078125 -1.6875 -2.078125q-1.25 0 -1.765625 1.234375l0 7.53125l-1.625 0l0 -10.03125l1.546875 0zm12.60022 9.125q0 -0.4375 0.25 -0.734375q0.265625 -0.296875 0.796875 -0.296875q0.53125 0 0.796875 0.296875q0.28125 0.296875 0.28125 0.734375q0 0.4375 -0.28125 0.734375q-0.265625 0.28125 -0.796875 0.28125q-0.53125 0 -0.796875 -0.28125q-0.25 -0.296875 -0.25 -0.734375z" fill-rule="nonzero"></path><path fill="#000000" d="m567.3037 543.4738l0 -13.515625l3.21875 0q2.375 0 3.671875 1.484375q1.3125 1.484375 1.3125 4.15625l0 2.265625q0 2.6875 -1.328125 4.15625q-1.328125 1.453125 -3.84375 1.453125l-3.03125 0zm1.703125 -12.046875l0 10.59375l1.359375 0q1.796875 0 2.609375 -1.015625q0.828125 -1.03125 0.859375 -3.046875l0 -2.390625q0 -2.140625 -0.828125 -3.140625q-0.8125 -1.0 -2.484375 -1.0l-1.515625 0zm17.774048 12.046875l-1.703125 0l-5.421875 -10.40625l0 10.40625l-1.703125 0l0 -13.515625l1.703125 0l5.4375 10.46875l0 -10.46875l1.6875 0l0 13.515625zm8.628967 -3.421875q0 -1.0 -0.546875 -1.53125q-0.546875 -0.546875 -1.984375 -1.046875q-1.421875 -0.515625 -2.1875 -1.078125q-0.75 -0.5625 -1.125 -1.28125q-0.375 -0.71875 -0.375 -1.65625q0 -1.59375 1.0625 -2.625q1.078125 -1.046875 2.8125 -1.046875q1.1875 0 2.109375 0.53125q0.9375 0.53125 1.4375 1.484375q0.5 0.9375 0.5 2.0625l-1.703125 0q0 -1.25 -0.609375 -1.9375q-0.59375 -0.6875 -1.734375 -0.6875q-1.03125 0 -1.59375 0.578125q-0.5625 0.578125 -0.5625 1.625q0 0.84375 0.609375 1.421875q0.609375 0.578125 1.890625 1.03125q2.0 0.65625 2.859375 1.625q0.859375 0.96875 0.859375 2.515625q0 1.640625 -1.078125 2.640625q-1.0625 0.984375 -2.890625 0.984375q-1.1875 0 -2.1875 -0.515625q-0.984375 -0.515625 -1.5625 -1.4375q-0.578125 -0.9375 -0.578125 -2.15625l1.71875 0q0 1.265625 0.6875 1.96875q0.703125 0.6875 1.921875 0.6875q1.109375 0 1.671875 -0.578125q0.578125 -0.578125 0.578125 -1.578125zm6.790161 -2.796875l-1.328125 1.59375l0 4.625l-1.703125 0l0 -13.515625l1.703125 0l0 6.53125l1.109375 -1.484375l3.640625 -5.046875l2.046875 0l-4.390625 5.953125l4.71875 7.5625l-2.03125 0l-3.765625 -6.21875zm13.619324 -0.03125l-4.78125 0l0 4.796875l5.5625 0l0 1.453125l-7.265625 0l0 -13.515625l7.171875 0l0 1.46875l-5.46875 0l0 4.34375l4.78125 0l0 1.453125zm6.2955933 -0.46875l2.765625 -6.796875l1.921875 0l-3.84375 8.484375l0 5.03125l-1.6875 0l0 -5.03125l-3.84375 -8.484375l1.921875 0l2.765625 6.796875zm17.727844 6.71875l-7.5625 0l0 -1.234375l3.859375 -5.109375q0.875 -1.171875 1.203125 -1.921875q0.34375 -0.765625 0.34375 -1.609375q0 -1.078125 -0.5 -1.734375q-0.5 -0.671875 -1.3125 -0.671875q-1.03125 0 -1.59375 0.71875q-0.5625 0.703125 -0.5625 2.03125l-1.640625 0q0 -1.859375 1.015625 -3.0q1.015625 -1.15625 2.78125 -1.15625q1.609375 0 2.53125 0.984375q0.9375 0.984375 0.9375 2.625q0 2.0 -2.09375 4.75l-3.0 3.921875l5.59375 0l0 1.40625z" fill-rule="nonzero"></path><path fill="#d9ead3" d="m523.85565 614.96344l0 0c0 -5.876648 4.763977 -10.640625 10.640625 -10.640625l125.36438 0c2.8220825 0 5.5285645 1.1210938 7.524109 3.1165771c1.9954834 1.9955444 3.1165771 4.7020264 3.1165771 7.524048l0 42.56128c0 5.876648 -4.763977 10.640625 -10.640686 10.640625l-125.36438 0l0 0c-5.876648 0 -10.640625 -4.763977 -10.640625 -10.640625z" fill-rule="nonzero"></path><path fill="#000000" d="m556.255 640.2735l1.515625 -7.140625l1.625 0l-2.46875 10.03125l-1.296875 0l-1.96875 -7.1875l-1.90625 7.1875l-1.3125 0l-2.4375 -10.03125l1.609375 0l1.5625 6.96875l1.859375 -6.96875l1.296875 0l1.921875 7.140625zm12.124756 0l1.515625 -7.140625l1.625 0l-2.46875 10.03125l-1.296875 0l-1.96875 -7.1875l-1.90625 7.1875l-1.3125 0l-2.4375 -10.03125l1.609375 0l1.5625 6.96875l1.859375 -6.96875l1.296875 0l1.921875 7.140625zm12.124756 0l1.515625 -7.140625l1.625 0l-2.46875 10.03125l-1.296875 0l-1.96875 -7.1875l-1.90625 7.1875l-1.3125 0l-2.4375 -10.03125l1.609375 0l1.5625 6.96875l1.859375 -6.96875l1.296875 0l1.921875 7.140625zm13.209595 -2.578125l-2.375 0l0 5.46875l-1.703125 0l0 -13.515625l3.78125 0q2.0 0 3.015625 1.046875q1.015625 1.03125 1.015625 3.03125q0 1.25 -0.546875 2.1875q-0.546875 0.921875 -1.5625 1.390625l2.609375 5.75l0 0.109375l-1.828125 0l-2.40625 -5.46875zm-2.375 -1.453125l2.0625 0q1.078125 0 1.703125 -0.6875q0.640625 -0.6875 0.640625 -1.828125q0 -2.609375 -2.359375 -2.609375l-2.046875 0l0 5.125zm12.277039 1.453125l-2.375 0l0 5.46875l-1.703125 0l0 -13.515625l3.78125 0q2.0 0 3.015625 1.046875q1.015625 1.03125 1.015625 3.03125q0 1.25 -0.546875 2.1875q-0.546875 0.921875 -1.5625 1.390625l2.609375 5.75l0 0.109375l-1.828125 0l-2.40625 -5.46875zm-2.375 -1.453125l2.0625 0q1.078125 0 1.703125 -0.6875q0.640625 -0.6875 0.640625 -1.828125q0 -2.609375 -2.359375 -2.609375l-2.046875 0l0 5.125zm14.105103 3.5q0 -1.0 -0.546875 -1.53125q-0.546875 -0.546875 -1.984375 -1.046875q-1.421875 -0.515625 -2.1875 -1.078125q-0.75 -0.5625 -1.125 -1.28125q-0.375 -0.71875 -0.375 -1.65625q0 -1.59375 1.0625 -2.625q1.078125 -1.046875 2.8125 -1.046875q1.1875 0 2.109375 0.53125q0.9375 0.53125 1.4375 1.484375q0.5 0.9375 0.5 2.0625l-1.703125 0q0 -1.25 -0.609375 -1.9375q-0.59375 -0.6875 -1.734375 -0.6875q-1.03125 0 -1.59375 0.578125q-0.5625 0.578125 -0.5625 1.625q0 0.84375 0.609375 1.421875q0.609375 0.578125 1.890625 1.03125q2.0 0.65625 2.859375 1.625q0.859375 0.96875 0.859375 2.515625q0 1.640625 -1.078125 2.640625q-1.0625 0.984375 -2.890625 0.984375q-1.1875 0 -2.1875 -0.515625q-0.984375 -0.515625 -1.5625 -1.4375q-0.578125 -0.9375 -0.578125 -2.15625l1.71875 0q0 1.265625 0.6875 1.96875q0.703125 0.6875 1.921875 0.6875q1.109375 0 1.671875 -0.578125q0.578125 -0.578125 0.578125 -1.578125zm5.540222 3.421875l-1.703125 0l0 -13.515625l1.703125 0l0 13.515625zm11.3359375 -1.671875l-0.296875 0.359375q-1.28125 1.5 -3.75 1.5q-2.1875 0 -3.4375 -1.453125q-1.25 -1.453125 -1.265625 -4.109375l0 -2.65625q0 -2.828125 1.125 -4.234375q1.140625 -1.421875 3.40625 -1.421875q1.921875 0 3.015625 1.078125q1.09375 1.0625 1.203125 3.0625l-1.703125 0q-0.09375 -1.265625 -0.703125 -1.96875q-0.59375 -0.71875 -1.796875 -0.71875q-1.46875 0 -2.140625 0.953125q-0.671875 0.953125 -0.703125 3.046875l0 2.75q0 2.046875 0.78125 3.140625q0.78125 1.078125 2.234375 1.078125q1.375 0 2.078125 -0.671875l0.25 -0.21875l0 -3.125l-2.453125 0l0 -1.4375l4.15625 0l0 5.046875zm14.029175 1.671875l-7.5625 0l0 -1.234375l3.859375 -5.109375q0.875 -1.171875 1.203125 -1.921875q0.34375 -0.765625 0.34375 -1.609375q0 -1.078125 -0.5 -1.734375q-0.5 -0.671875 -1.3125 -0.671875q-1.03125 0 -1.59375 0.71875q-0.5625 0.703125 -0.5625 2.03125l-1.640625 0q0 -1.859375 1.015625 -3.0q1.015625 -1.15625 2.78125 -1.15625q1.609375 0 2.53125 0.984375q0.9375 0.984375 0.9375 2.625q0 2.0 -2.09375 4.75l-3.0 3.921875l5.59375 0l0 1.40625z" fill-rule="nonzero"></path><path fill="#000000" fill-opacity="0.0" d="m457.17584 117.7874c0 12.033417 -32.73227 18.051102 -65.46457 24.066849c-32.73227 6.015747 -65.46457 12.029572 -65.46457 24.059143" fill-rule="nonzero"></path><path stroke="#000000" stroke-width="1.0" stroke-linejoin="round" stroke-linecap="butt" d="m457.17584 117.7874c0 12.033417 -32.73227 18.051102 -65.46457 24.066849c-32.73227 6.015747 -65.46457 12.029572 -65.46457 24.059143" fill-rule="nonzero"></path><path fill="#000000" fill-opacity="0.0" d="m457.17584 117.7874c0 12.760468 31.818909 19.139038 63.637817 25.52092c31.818909 6.381897 63.637756 12.767105 63.637756 25.534195" fill-rule="nonzero"></path><path stroke="#000000" stroke-width="1.0" stroke-linejoin="round" stroke-linecap="butt" d="m457.17584 117.7874c0 12.760468 31.818909 19.139038 63.637817 25.52092c31.818909 6.381897 63.637756 12.767105 63.637756 25.534195" fill-rule="nonzero"></path><path fill="#000000" fill-opacity="0.0" d="m584.45404 232.67192c0 10.349762 6.3622437 15.526306 12.724426 20.699524c6.3622437 5.173233 12.724426 10.343155 12.724426 20.686295" fill-rule="nonzero"></path><path stroke="#000000" stroke-width="1.0" stroke-linejoin="round" stroke-linecap="butt" d="m584.45404 232.67192c0 10.349762 6.3622437 15.526306 12.724426 20.699524c6.3622437 5.173233 12.724426 10.343155 12.724426 20.686295" fill-rule="nonzero"></path><path fill="#000000" fill-opacity="0.0" d="m326.24933 229.76378c0 11.166916 -6.3621826 16.75116 -12.724396 22.333832c-6.362213 5.5826874 -12.724396 11.163803 -12.724396 22.32759" fill-rule="nonzero"></path><path stroke="#000000" stroke-width="1.0" stroke-linejoin="round" stroke-linecap="butt" d="m326.24933 229.76378c0 11.166916 -6.3621826 16.75116 -12.724396 22.333832c-6.362213 5.5826874 -12.724396 11.163803 -12.724396 22.32759" fill-rule="nonzero"></path><path fill="#000000" fill-opacity="0.0" d="m609.9029 337.9134c0 10.349762 3.1810913 15.526306 6.3621826 20.699524c3.1810913 5.1732483 6.3622437 10.34314 6.3622437 20.68631" fill-rule="nonzero"></path><path stroke="#000000" stroke-width="1.0" stroke-linejoin="round" stroke-linecap="butt" d="m609.9029 337.9134c0 10.349762 3.1810913 15.526306 6.3621826 20.699524c3.1810913 5.1732483 6.3622437 10.34314 6.3622437 20.68631" fill-rule="nonzero"></path><path fill="#000000" fill-opacity="0.0" d="m622.6273 443.15485c0 12.619537 -4.8740234 18.92804 -9.748047 25.239044c-4.8740234 6.311035 -9.748047 12.624573 -9.748047 25.249146" fill-rule="nonzero"></path><path stroke="#000000" stroke-width="1.0" stroke-linejoin="round" stroke-linecap="butt" d="m622.6273 443.15485c0 12.619537 -4.8740234 18.92804 -9.748047 25.239044c-4.8740234 6.311035 -9.748047 12.624573 -9.748047 25.249146" fill-rule="nonzero"></path><path fill="#000000" fill-opacity="0.0" d="m603.1312 557.47504c0 11.711975 -1.4881592 17.56958 -2.9763794 23.42389c-1.4881592 5.85437 -2.9763794 11.705383 -2.9763794 23.410767" fill-rule="nonzero"></path><path stroke="#000000" stroke-width="1.0" stroke-linejoin="round" stroke-linecap="butt" d="m603.1312 557.47504c0 11.711975 -1.4881592 17.56958 -2.9763794 23.42389c-1.4881592 5.85437 -2.9763794 11.705383 -2.9763794 23.410767" fill-rule="nonzero"></path><path fill="#000000" fill-opacity="0.0" d="m304.59842 557.47375c0 11.712158 3.0944824 17.570007 6.1889954 23.424316c3.0944824 5.85437 6.188965 11.7052 6.188965 23.41034" fill-rule="nonzero"></path><path stroke="#000000" stroke-width="1.0" stroke-linejoin="round" stroke-linecap="butt" d="m304.59842 557.47375c0 11.712158 3.0944824 17.570007 6.1889954 23.424316c3.0944824 5.85437 6.188965 11.7052 6.188965 23.41034" fill-rule="nonzero"></path><path fill="#000000" fill-opacity="0.0" d="m285.10236 446.7848c0 11.7117 4.8740234 17.569061 9.748047 23.4234c4.873993 5.8543396 9.748016 11.705627 9.748016 23.411224" fill-rule="nonzero"></path><path stroke="#000000" stroke-width="1.0" stroke-linejoin="round" stroke-linecap="butt" d="m285.10236 446.7848c0 11.7117 4.8740234 17.569061 9.748047 23.4234c4.873993 5.8543396 9.748016 11.705627 9.748016 23.411224" fill-rule="nonzero"></path><path fill="#000000" fill-opacity="0.0" d="m300.80054 338.2743c0 11.166901 -3.9212646 16.75113 -7.8425293 22.333832c-3.9212646 5.582672 -7.8425293 11.163788 -7.8425293 22.327576" fill-rule="nonzero"></path><path stroke="#000000" stroke-width="1.0" stroke-linejoin="round" stroke-linecap="butt" d="m300.80054 338.2743c0 11.166901 -3.9212646 16.75113 -7.8425293 22.333832c-3.9212646 5.582672 -7.8425293 11.163788 -7.8425293 22.327576" fill-rule="nonzero"></path><path fill="#f4cccc" d="m754.5591 614.96344l0 0c0 -5.876648 4.763977 -10.640625 10.640625 -10.640625l125.36438 0c2.8220825 0 5.5285645 1.1210938 7.524048 3.1165771c1.9955444 1.9955444 3.1165771 4.7020264 3.1165771 7.524048l0 42.56128c0 5.876648 -4.763977 10.640625 -10.640625 10.640625l-125.36438 0l0 0c-5.876648 0 -10.640625 -4.763977 -10.640625 -10.640625z" fill-rule="nonzero"></path><path fill="#000000" d="m786.95844 640.2735l1.515625 -7.140625l1.625 0l-2.46875 10.03125l-1.296875 0l-1.96875 -7.1875l-1.90625 7.1875l-1.3125 0l-2.4375 -10.03125l1.609375 0l1.5625 6.96875l1.859375 -6.96875l1.296875 0l1.921875 7.140625zm12.124756 0l1.515625 -7.140625l1.625 0l-2.46875 10.03125l-1.296875 0l-1.96875 -7.1875l-1.90625 7.1875l-1.3125 0l-2.4375 -10.03125l1.609375 0l1.5625 6.96875l1.859375 -6.96875l1.296875 0l1.921875 7.140625zm12.124695 0l1.515625 -7.140625l1.625 0l-2.46875 10.03125l-1.296875 0l-1.96875 -7.1875l-1.90625 7.1875l-1.3125 0l-2.4375 -10.03125l1.609375 0l1.5625 6.96875l1.859375 -6.96875l1.296875 0l1.921875 7.140625zm13.209595 -2.578125l-2.375 0l0 5.46875l-1.703125 0l0 -13.515625l3.78125 0q2.0 0 3.015625 1.046875q1.015625 1.03125 1.015625 3.03125q0 1.25 -0.546875 2.1875q-0.546875 0.921875 -1.5625 1.390625l2.609375 5.75l0 0.109375l-1.828125 0l-2.40625 -5.46875zm-2.375 -1.453125l2.0625 0q1.078125 0 1.703125 -0.6875q0.640625 -0.6875 0.640625 -1.828125q0 -2.609375 -2.359375 -2.609375l-2.046875 0l0 5.125zm12.277039 1.453125l-2.375 0l0 5.46875l-1.703125 0l0 -13.515625l3.78125 0q2.0 0 3.015625 1.046875q1.015625 1.03125 1.015625 3.03125q0 1.25 -0.546875 2.1875q-0.546875 0.921875 -1.5625 1.390625l2.609375 5.75l0 0.109375l-1.828125 0l-2.40625 -5.46875zm-2.375 -1.453125l2.0625 0q1.078125 0 1.703125 -0.6875q0.640625 -0.6875 0.640625 -1.828125q0 -2.609375 -2.359375 -2.609375l-2.046875 0l0 5.125zm14.105164 3.5q0 -1.0 -0.546875 -1.53125q-0.546875 -0.546875 -1.984375 -1.046875q-1.421875 -0.515625 -2.1875 -1.078125q-0.75 -0.5625 -1.125 -1.28125q-0.375 -0.71875 -0.375 -1.65625q0 -1.59375 1.0625 -2.625q1.078125 -1.046875 2.8125 -1.046875q1.1875 0 2.109375 0.53125q0.9375 0.53125 1.4375 1.484375q0.5 0.9375 0.5 2.0625l-1.703125 0q0 -1.25 -0.609375 -1.9375q-0.59375 -0.6875 -1.734375 -0.6875q-1.03125 0 -1.59375 0.578125q-0.5625 0.578125 -0.5625 1.625q0 0.84375 0.609375 1.421875q0.609375 0.578125 1.890625 1.03125q2.0 0.65625 2.859375 1.625q0.859375 0.96875 0.859375 2.515625q0 1.640625 -1.078125 2.640625q-1.0625 0.984375 -2.890625 0.984375q-1.1875 0 -2.1875 -0.515625q-0.984375 -0.515625 -1.5625 -1.4375q-0.578125 -0.9375 -0.578125 -2.15625l1.71875 0q0 1.265625 0.6875 1.96875q0.703125 0.6875 1.921875 0.6875q1.109375 0 1.671875 -0.578125q0.578125 -0.578125 0.578125 -1.578125zm5.540161 3.421875l-1.703125 0l0 -13.515625l1.703125 0l0 13.515625zm11.3359375 -1.671875l-0.296875 0.359375q-1.28125 1.5 -3.75 1.5q-2.1875 0 -3.4375 -1.453125q-1.25 -1.453125 -1.265625 -4.109375l0 -2.65625q0 -2.828125 1.125 -4.234375q1.140625 -1.421875 3.40625 -1.421875q1.921875 0 3.015625 1.078125q1.09375 1.0625 1.203125 3.0625l-1.703125 0q-0.09375 -1.265625 -0.703125 -1.96875q-0.59375 -0.71875 -1.796875 -0.71875q-1.46875 0 -2.140625 0.953125q-0.671875 0.953125 -0.703125 3.046875l0 2.75q0 2.046875 0.78125 3.140625q0.78125 1.078125 2.234375 1.078125q1.375 0 2.078125 -0.671875l0.25 -0.21875l0 -3.125l-2.453125 0l0 -1.4375l4.15625 0l0 5.046875zm8.576111 -5.921875l1.046875 0q1.0 0 1.546875 -0.609375q0.5625 -0.625 0.5625 -1.703125q0 -2.375 -1.84375 -2.375q-0.875 0 -1.390625 0.640625q-0.5 0.640625 -0.5 1.671875l-1.625 0q0 -1.625 0.984375 -2.671875q0.984375 -1.046875 2.53125 -1.046875q1.59375 0 2.53125 1.0q0.9375 0.984375 0.9375 2.8125q0 0.9375 -0.484375 1.75q-0.484375 0.8125 -1.265625 1.1875q1.90625 0.71875 1.90625 3.171875q0 1.8125 -1.015625 2.890625q-1.0 1.0625 -2.625 1.0625q-1.59375 0 -2.59375 -1.015625q-0.984375 -1.015625 -0.984375 -2.734375l1.640625 0q0 1.078125 0.515625 1.71875q0.53125 0.625 1.421875 0.625q0.921875 0 1.46875 -0.609375q0.546875 -0.625 0.546875 -1.90625q0 -2.453125 -2.328125 -2.453125l-0.984375 0l0 -1.40625z" fill-rule="nonzero"></path><path fill="#f4cccc" d="m735.7559 504.2732l0 0c0 -5.8766785 4.763977 -10.6406555 10.640625 -10.6406555l144.16754 0c2.8220825 0 5.5285645 1.1210632 7.524048 3.1165771c1.9955444 1.9955139 3.1165771 4.701996 3.1165771 7.5240784l0 42.56122c0 5.876709 -4.763977 10.640625 -10.640625 10.640625l-144.16754 0l0 0c-5.876648 0 -10.640625 -4.763916 -10.640625 -10.640625z" fill-rule="nonzero"></path><path fill="#000000" d="m771.3186 521.6613q-1.875 0 -2.875 -1.109375q-1.0 -1.125 -1.015625 -3.296875l0 -1.203125q0 -2.25 0.96875 -3.515625q0.984375 -1.28125 2.734375 -1.28125q1.765625 0 2.640625 1.125q0.875 1.109375 0.890625 3.484375l0 1.078125l-5.609375 0l0 0.234375q0 1.609375 0.609375 2.34375q0.609375 0.734375 1.75 0.734375q0.71875 0 1.265625 -0.265625q0.5625 -0.28125 1.046875 -0.875l0.859375 1.046875q-1.078125 1.5 -3.265625 1.5zm-0.1875 -9.0q-1.015625 0 -1.515625 0.703125q-0.484375 0.703125 -0.546875 2.171875l3.953125 0l0 -0.21875q-0.0625 -1.4375 -0.515625 -2.046875q-0.453125 -0.609375 -1.375 -0.609375zm8.235962 2.4375l1.71875 -3.65625l1.90625 0l-2.734375 4.953125l2.796875 5.078125l-1.890625 0l-1.765625 -3.75l-1.78125 3.75l-1.890625 0l2.796875 -5.078125l-2.71875 -4.953125l1.875 0l1.6875 3.65625zm10.455078 6.375q-0.140625 -0.328125 -0.21875 -1.09375q-0.859375 1.28125 -2.21875 1.28125q-1.359375 0 -2.125 -0.765625q-0.765625 -0.765625 -0.765625 -2.15625q0 -1.53125 1.03125 -2.421875q1.046875 -0.90625 2.84375 -0.9375l1.21875 0l0 -1.0625q0 -0.890625 -0.40625 -1.265625q-0.390625 -0.390625 -1.21875 -0.390625q-0.734375 0 -1.203125 0.4375q-0.46875 0.4375 -0.46875 1.125l-1.640625 0q0 -0.78125 0.453125 -1.46875q0.46875 -0.703125 1.234375 -1.09375q0.765625 -0.40625 1.71875 -0.40625q1.53125 0 2.328125 0.765625q0.8125 0.765625 0.828125 2.21875l0 5.078125q0.015625 1.15625 0.3125 2.0l0 0.15625l-1.703125 0zm-2.1875 -1.3125q0.609375 0 1.15625 -0.328125q0.546875 -0.328125 0.796875 -0.84375l0 -2.390625l-0.9375 0q-1.171875 0.015625 -1.84375 0.53125q-0.671875 0.5 -0.671875 1.40625q0 0.859375 0.34375 1.25q0.34375 0.375 1.15625 0.375zm7.5145264 -8.71875l0.03125 0.921875q0.921875 -1.109375 2.421875 -1.109375q1.671875 0 2.34375 1.453125q0.953125 -1.453125 2.640625 -1.453125q2.765625 0 2.828125 3.453125l0 6.765625l-1.625 0l0 -6.609375q0 -1.09375 -0.390625 -1.625q-0.390625 -0.53125 -1.3125 -0.53125q-0.75 0 -1.21875 0.578125q-0.453125 0.578125 -0.53125 1.46875l0 6.71875l-1.65625 0l0 -6.6875q-0.015625 -2.078125 -1.6875 -2.078125q-1.25 0 -1.765625 1.234375l0 7.53125l-1.625 0l0 -10.03125l1.546875 0zm19.740906 5.5q0 2.375 -0.859375 3.546875q-0.859375 1.171875 -2.421875 1.171875q-1.515625 0 -2.34375 -1.140625l0 4.8125l-1.625 0l0 -13.890625l1.484375 0l0.078125 1.109375q0.828125 -1.296875 2.375 -1.296875q1.640625 0 2.453125 1.15625q0.828125 1.140625 0.859375 3.4375l0 1.09375zm-1.640625 -0.9375q0 -1.6875 -0.515625 -2.484375q-0.515625 -0.8125 -1.671875 -0.8125q-1.171875 0 -1.796875 1.171875l0 5.234375q0.609375 1.140625 1.8125 1.140625q1.125 0 1.640625 -0.796875q0.53125 -0.8125 0.53125 -2.453125l0 -1.0zm5.3568115 5.46875l-1.640625 0l0 -14.25l1.640625 0l0 14.25zm6.084839 0.1875q-1.875 0 -2.875 -1.109375q-1.0 -1.125 -1.015625 -3.296875l0 -1.203125q0 -2.25 0.96875 -3.515625q0.984375 -1.28125 2.734375 -1.28125q1.765625 0 2.640625 1.125q0.875 1.109375 0.890625 3.484375l0 1.078125l-5.609375 0l0 0.234375q0 1.609375 0.609375 2.34375q0.609375 0.734375 1.75 0.734375q0.71875 0 1.265625 -0.265625q0.5625 -0.28125 1.046875 -0.875l0.859375 1.046875q-1.078125 1.5 -3.265625 1.5zm-0.1875 -9.0q-1.015625 0 -1.515625 0.703125q-0.484375 0.703125 -0.546875 2.171875l3.953125 0l0 -0.21875q-0.0625 -1.4375 -0.515625 -2.046875q-0.453125 -0.609375 -1.375 -0.609375zm5.454773 7.90625q0 -0.4375 0.25 -0.734375q0.265625 -0.296875 0.796875 -0.296875q0.53125 0 0.796875 0.296875q0.28125 0.296875 0.28125 0.734375q0 0.4375 -0.28125 0.734375q-0.265625 0.28125 -0.796875 0.28125q-0.53125 0 -0.796875 -0.28125q-0.25 -0.296875 -0.25 -0.734375zm8.285034 -0.3125q0.8125 0 1.296875 -0.5q0.5 -0.515625 0.546875 -1.4375l1.546875 0q-0.0625 1.4375 -1.03125 2.390625q-0.96875 0.953125 -2.359375 0.953125q-1.875 0 -2.859375 -1.171875q-0.96875 -1.171875 -0.96875 -3.5l0 -1.09375q0 -2.28125 0.96875 -3.453125q0.984375 -1.1875 2.84375 -1.1875q1.546875 0 2.4375 0.96875q0.90625 0.96875 0.96875 2.65625l-1.546875 0q-0.0625 -1.109375 -0.546875 -1.65625q-0.46875 -0.5625 -1.3125 -0.5625q-1.09375 0 -1.625 0.71875q-0.53125 0.71875 -0.546875 2.359375l0 1.28125q0 1.765625 0.515625 2.5q0.53125 0.734375 1.671875 0.734375zm4.7738037 -4.265625q0 -2.1875 1.0625 -3.453125q1.0625 -1.28125 2.8125 -1.28125q1.75 0 2.8125 1.25q1.0625 1.234375 1.078125 3.375l0 1.0625q0 2.171875 -1.0625 3.453125q-1.046875 1.265625 -2.8125 1.265625q-1.734375 0 -2.796875 -1.234375q-1.046875 -1.234375 -1.09375 -3.34375l0 -1.09375zm1.65625 0.953125q0 1.546875 0.59375 2.4375q0.609375 0.875 1.640625 0.875q2.171875 0 2.234375 -3.125l0 -1.140625q0 -1.53125 -0.609375 -2.421875q-0.609375 -0.90625 -1.640625 -0.90625q-1.015625 0 -1.625 0.90625q-0.59375 0.890625 -0.59375 2.40625l0 0.96875zm9.614563 -5.5l0.03125 0.921875q0.921875 -1.109375 2.421875 -1.109375q1.671875 0 2.34375 1.453125q0.953125 -1.453125 2.640625 -1.453125q2.765625 0 2.828125 3.453125l0 6.765625l-1.625 0l0 -6.609375q0 -1.09375 -0.390625 -1.625q-0.390625 -0.53125 -1.3125 -0.53125q-0.75 0 -1.21875 0.578125q-0.453125 0.578125 -0.53125 1.46875l0 6.71875l-1.65625 0l0 -6.6875q-0.015625 -2.078125 -1.6875 -2.078125q-1.25 0 -1.765625 1.234375l0 7.53125l-1.625 0l0 -10.03125l1.546875 0zm12.600281 9.125q0 -0.4375 0.25 -0.734375q0.265625 -0.296875 0.796875 -0.296875q0.53125 0 0.796875 0.296875q0.28125 0.296875 0.28125 0.734375q0 0.4375 -0.28125 0.734375q-0.265625 0.28125 -0.796875 0.28125q-0.53125 0 -0.796875 -0.28125q-0.25 -0.296875 -0.25 -0.734375z" fill-rule="nonzero"></path><path fill="#000000" d="m782.65283 543.4738l0 -13.515625l3.21875 0q2.375 0 3.671875 1.484375q1.3125 1.484375 1.3125 4.15625l0 2.265625q0 2.6875 -1.328125 4.15625q-1.328125 1.453125 -3.84375 1.453125l-3.03125 0zm1.703125 -12.046875l0 10.59375l1.359375 0q1.796875 0 2.609375 -1.015625q0.828125 -1.03125 0.859375 -3.046875l0 -2.390625q0 -2.140625 -0.828125 -3.140625q-0.8125 -1.0 -2.484375 -1.0l-1.515625 0zm17.773987 12.046875l-1.703125 0l-5.421875 -10.40625l0 10.40625l-1.703125 0l0 -13.515625l1.703125 0l5.4375 10.46875l0 -10.46875l1.6875 0l0 13.515625zm8.628967 -3.421875q0 -1.0 -0.546875 -1.53125q-0.546875 -0.546875 -1.984375 -1.046875q-1.421875 -0.515625 -2.1875 -1.078125q-0.75 -0.5625 -1.125 -1.28125q-0.375 -0.71875 -0.375 -1.65625q0 -1.59375 1.0625 -2.625q1.078125 -1.046875 2.8125 -1.046875q1.1875 0 2.109375 0.53125q0.9375 0.53125 1.4375 1.484375q0.5 0.9375 0.5 2.0625l-1.703125 0q0 -1.25 -0.609375 -1.9375q-0.59375 -0.6875 -1.734375 -0.6875q-1.03125 0 -1.59375 0.578125q-0.5625 0.578125 -0.5625 1.625q0 0.84375 0.609375 1.421875q0.609375 0.578125 1.890625 1.03125q2.0 0.65625 2.859375 1.625q0.859375 0.96875 0.859375 2.515625q0 1.640625 -1.078125 2.640625q-1.0625 0.984375 -2.890625 0.984375q-1.1875 0 -2.1875 -0.515625q-0.984375 -0.515625 -1.5625 -1.4375q-0.578125 -0.9375 -0.578125 -2.15625l1.71875 0q0 1.265625 0.6875 1.96875q0.703125 0.6875 1.921875 0.6875q1.109375 0 1.671875 -0.578125q0.578125 -0.578125 0.578125 -1.578125zm6.790161 -2.796875l-1.328125 1.59375l0 4.625l-1.703125 0l0 -13.515625l1.703125 0l0 6.53125l1.109375 -1.484375l3.640625 -5.046875l2.046875 0l-4.390625 5.953125l4.71875 7.5625l-2.03125 0l-3.765625 -6.21875zm13.619324 -0.03125l-4.78125 0l0 4.796875l5.5625 0l0 1.453125l-7.265625 0l0 -13.515625l7.171875 0l0 1.46875l-5.46875 0l0 4.34375l4.78125 0l0 1.453125zm6.2956543 -0.46875l2.765625 -6.796875l1.921875 0l-3.84375 8.484375l0 5.03125l-1.6875 0l0 -5.03125l-3.84375 -8.484375l1.921875 0l2.765625 6.796875zm12.274658 -0.875l1.046875 0q1.0 0 1.546875 -0.609375q0.5625 -0.625 0.5625 -1.703125q0 -2.375 -1.84375 -2.375q-0.875 0 -1.390625 0.640625q-0.5 0.640625 -0.5 1.671875l-1.625 0q0 -1.625 0.984375 -2.671875q0.984375 -1.046875 2.53125 -1.046875q1.59375 0 2.53125 1.0q0.9375 0.984375 0.9375 2.8125q0 0.9375 -0.484375 1.75q-0.484375 0.8125 -1.265625 1.1875q1.90625 0.71875 1.90625 3.171875q0 1.8125 -1.015625 2.890625q-1.0 1.0625 -2.625 1.0625q-1.59375 0 -2.59375 -1.015625q-0.984375 -1.015625 -0.984375 -2.734375l1.640625 0q0 1.078125 0.515625 1.71875q0.53125 0.625 1.421875 0.625q0.921875 0 1.46875 -0.609375q0.546875 -0.625 0.546875 -1.90625q0 -2.453125 -2.328125 -2.453125l-0.984375 0l0 -1.40625z" fill-rule="nonzero"></path><path fill="#000000" fill-opacity="0.0" d="m818.4803 557.47504c0 11.711975 2.35437 17.56958 4.708679 23.42389c2.35437 5.85437 4.708679 11.705383 4.708679 23.410767" fill-rule="nonzero"></path><path stroke="#000000" stroke-width="1.0" stroke-linejoin="round" stroke-linecap="butt" d="m818.4803 557.47504c0 11.711975 2.35437 17.56958 4.708679 23.42389c2.35437 5.85437 4.708679 11.705383 4.708679 23.410767" fill-rule="nonzero"></path><path fill="#f4cccc" d="m771.51447 414.86353l0 0c0 -7.0274963 5.6968994 -12.724426 12.724365 -12.724426l0 0c3.3747559 0 6.611267 1.3406067 8.997559 3.7268982c2.3862915 2.3862915 3.7268677 5.6228027 3.7268677 8.997528l0 0c0 7.0274963 -5.6968994 12.724396 -12.724426 12.724396l0 0c-7.027466 0 -12.724365 -5.6968994 -12.724365 -12.724396zm19.726562 3.7703857c1.6650391 -3.0922241 1.1046143 -6.910492 -1.3787231 -9.393829c-2.4833984 -2.483368 -6.3016357 -3.0437622 -9.39386 -1.3787231zm-14.0043335 -7.540802l0 0c-1.6650391 3.0922241 -1.1046753 6.910492 1.3787231 9.39386c2.4833374 2.483368 6.3016357 3.0437622 9.393799 1.3787231z" fill-rule="nonzero"></path><path stroke="#000000" stroke-width="1.0" stroke-linejoin="round" stroke-linecap="butt" d="m771.51447 414.86353l0 0c0 -7.0274963 5.6968994 -12.724426 12.724365 -12.724426l0 0c3.3747559 0 6.611267 1.3406067 8.997559 3.7268982c2.3862915 2.3862915 3.7268677 5.6228027 3.7268677 8.997528l0 0c0 7.0274963 -5.6968994 12.724396 -12.724426 12.724396l0 0c-7.027466 0 -12.724365 -5.6968994 -12.724365 -12.724396zm19.726562 3.7703857c1.6650391 -3.0922241 1.1046143 -6.910492 -1.3787231 -9.393829c-2.4833984 -2.483368 -6.3016357 -3.0437622 -9.39386 -1.3787231zm-14.0043335 -7.540802l0 0c-1.6650391 3.0922241 -1.1046753 6.910492 1.3787231 9.39386c2.4833374 2.483368 6.3016357 3.0437622 9.393799 1.3787231z" fill-rule="nonzero"></path><path fill="#000000" fill-opacity="0.0" d="m818.4803 493.63254c0 -16.511139 -8.559021 -24.766388 -17.118103 -33.022278c-8.559021 -8.25592 -17.118103 -16.512482 -17.118103 -33.024963" fill-rule="nonzero"></path><path stroke="#000000" stroke-width="1.0" stroke-linejoin="round" stroke-linecap="butt" d="m818.4803 493.63254c0 -16.511139 -8.559021 -24.766388 -17.118103 -33.022278c-8.559021 -8.25592 -17.118103 -16.512482 -17.118103 -33.024963" fill-rule="nonzero"></path></g></svg>

