<?xml version="1.0" encoding="utf-8"?>
<!-- Svg Vector Icons : http://www.onlinewebfonts.com/icon -->
<!DOCTYPE svg PUBLIC "-//W3C//DTD SVG 1.1//EN" "http://www.w3.org/Graphics/SVG/1.1/DTD/svg11.dtd">
<svg version="1.1" xmlns="http://www.w3.org/2000/svg" xmlns:xlink="http://www.w3.org/1999/xlink" x="0px" y="0px" viewBox="0 0 1000 1000" enable-background="new 0 0 1000 1000" xml:space="preserve">
<metadata> Svg Vector Icons : http://www.onlinewebfonts.com/icon </metadata>
<g><g><g>
  <path fill="#828282" d="M990,490.9c0-59.8-48.7-108.5-108.5-108.5c-28.4,0-54.7,11.4-74.8,30.8c-74-49-174.1-80.2-285-84.1l60.6-191.5l164,38.6c0,0.8-0.2,1.6-0.2,2.4c0,48.9,39.8,88.7,88.8,88.7c48.9,0,88.7-39.8,88.7-88.7c0-48.9-39.8-88.7-88.7-88.7c-37.6,0-69.6,23.5-82.5,56.5l-176.7-41.6c-7.7-1.9-15.6,2.6-18,10.2L490,328.6c-116,1.4-221,32.8-298.2,83.1c-20-18.4-46-29.3-73.3-29.3C58.6,382.4,10,431.1,10,490.9c0,38.7,20.8,74.1,53.7,93.4c-2.1,11.5-3.5,23.1-3.5,34.9c0,160.4,196.3,290.9,437.7,290.9c241.4,0,437.7-130.5,437.7-290.9c0-11.1-1.2-22-3-32.9C967.8,567.6,990,531.5,990,490.9z M834.8,120.3c32.2,0,58.3,26.2,58.3,58.3c0,32.2-26.1,58.4-58.3,58.4c-32.2,0-58.4-26.2-58.4-58.4C776.4,146.4,802.6,120.3,834.8,120.3z M40.4,490.9c0-43.1,35-78.1,78.1-78.1c17.6,0,34.4,6.2,48.1,16.9c-45.4,35-78.3,77.2-94.6,123.7C52.5,538.9,40.4,515.9,40.4,490.9z M498,879.7c-224.6,0-407.3-116.8-407.3-260.5c0-143.6,182.7-260.5,407.3-260.5c224.6,0,407.3,116.9,407.3,260.5C905.3,762.9,722.6,879.7,498,879.7z M924.8,555.7c-15.7-46.7-48.3-89.2-93.4-124.5c14-11.7,31.4-18.4,50.1-18.4c43.1,0,78.1,35.1,78.1,78.1C959.6,517.6,946.3,541.4,924.8,555.7z"/>
  <path fill="#828282" d="M415.8,565.4c0-35.6-29-64.6-64.6-64.6c-35.6,0-64.6,29-64.6,64.6c0,35.6,29,64.6,64.6,64.6C386.9,630,415.8,601,415.8,565.4z"/>
  <path fill="#828282" d="M649,500.8c-35.6,0-64.6,29-64.6,64.6c0,35.6,28.9,64.6,64.6,64.6c35.6,0,64.5-28.9,64.5-64.6S684.6,500.8,649,500.8z"/>
  <path fill="#828282" d="M635.2,735.4c-26.6,26.6-70.6,39.5-134.7,39.5c-0.2,0-0.3,0.1-0.5,0.1c-0.2,0-0.3-0.1-0.5-0.1c-64.1,0-108.1-12.9-134.7-39.5c-5.9-5.9-15.6-5.9-21.5,0c-5.9,6-5.9,15.6,0,21.5c32.6,32.6,83.6,48.4,156.2,48.4c0.2,0,0.3-0.1,0.5-0.1c0.2,0,0.4,0.1,0.5,0.1c72.5,0,123.6-15.8,156.1-48.4c5.9-5.9,5.9-15.5,0-21.5C650.7,729.4,641.1,729.4,635.2,735.4z"/></g></g><g></g><g></g><g></g><g></g><g></g><g></g><g></g><g></g><g></g><g></g><g></g><g></g><g></g><g></g><g></g></g>
</svg>
